<?xml version="1.0" encoding="UTF-8"?>
<svg version="1.1" xmlns="http://www.w3.org/2000/svg" width="744" height="1052">
<path d="M0 0 C38.20092561 -0.92608305 72.31028384 15.23219722 99.515625 41.125 C100.14984375 41.70636719 100.7840625 42.28773438 101.4375 42.88671875 C111.17668 52.0925627 118.93119119 63.54321702 125.515625 75.125 C125.87366211 75.74681152 126.23169922 76.36862305 126.60058594 77.00927734 C140.66933594 101.63874125 147.3604228 128.4385317 152.515625 156.125 C153.04929687 155.45855469 153.58296875 154.79210937 154.1328125 154.10546875 C161.95490773 144.42934749 169.90989955 135.08353426 179.515625 127.125 C180.37414062 126.37863281 181.23265625 125.63226563 182.1171875 124.86328125 C206.53818006 103.89808953 236.18145108 87.11458243 268.515625 83.125 C269.32128906 83.01414062 270.12695312 82.90328125 270.95703125 82.7890625 C309.45947713 78.3302503 346.98654645 87.11276068 377.66821289 111.05322266 C410.65402153 137.76733089 427.78134954 177.11403763 432.30174255 218.76292419 C432.62739717 222.35938995 432.71579409 225.94119223 432.75390625 229.55078125 C432.7637001 230.32781403 432.77349396 231.1048468 432.78358459 231.90542603 C433.34622894 288.25178915 420.06895177 341.39071396 380.02392578 382.62792969 C376.13478131 386.48811646 371.89033048 389.83805913 367.515625 393.125 C366.99806641 393.51751953 366.48050781 393.91003906 365.94726562 394.31445312 C346.47621132 408.9933483 324.7392909 420.18401713 301.8828125 428.59765625 C300.74714844 429.01680801 299.61148437 429.43595978 298.44140625 429.86781311 C278.78632814 437.02753824 258.8366172 443.37641321 238.95800781 449.8815918 C212.21034337 458.64076859 185.78781761 467.65855298 160.515625 480.1875 C159.29410395 480.78686313 158.07242015 481.38589467 156.85058594 481.98461914 C153.39754509 483.68207559 149.95544393 485.40089307 146.515625 487.125 C145.61908203 487.57198242 144.72253906 488.01896484 143.79882812 488.47949219 C118.25831896 501.29038402 94.11676359 516.6776387 71.515625 534.125 C70.55011719 534.86234375 69.58460938 535.5996875 68.58984375 536.359375 C54.90927216 546.78758298 54.90927216 546.78758298 44.515625 560.125 C43.855625 560.125 43.195625 560.125 42.515625 560.125 C42.3705249 559.50270508 42.2254248 558.88041016 42.07592773 558.23925781 C28.10111954 498.8994022 -3.59709431 445.76727946 -43.08398438 399.76367188 C-44.49234102 398.11567854 -45.88794358 396.45760323 -47.28125 394.796875 C-54.75469554 385.92709528 -62.64723702 377.4986574 -70.63037109 369.08789062 C-74.97474753 364.48836645 -79.22398376 359.80216865 -83.484375 355.125 C-84.33515625 354.20332031 -85.1859375 353.28164063 -86.0625 352.33203125 C-91.02246821 346.93844619 -95.75287951 341.4230397 -100.3515625 335.71875 C-102.25073857 333.40912929 -104.2114499 331.20067166 -106.234375 329 C-111.8641548 322.73098225 -116.87252584 315.96083716 -121.91650391 309.21923828 C-122.89105363 307.91751179 -123.8692368 306.61848727 -124.85302734 305.32373047 C-154.44650676 266.31776973 -168.93201147 219.10803882 -162.76586914 170.22631836 C-162.17039325 166.48061018 -161.38776333 162.80798732 -160.484375 159.125 C-160.25331055 158.17931152 -160.02224609 157.23362305 -159.78417969 156.25927734 C-151.1694826 121.95761242 -137.21128881 88.53293027 -114.484375 61.125 C-113.74670898 60.23506348 -113.74670898 60.23506348 -112.99414062 59.32714844 C-85.89887548 26.84342717 -50.19515218 4.93573101 -7.671875 0.4375 C-5.11532515 0.25596983 -2.55964315 0.12878708 0 0 Z " fill="#000000" transform="translate(237.484375,245.875)"/>
</svg>
