<?xml version="1.0" encoding="UTF-8"?>
<svg version="1.1" xmlns="http://www.w3.org/2000/svg" width="500" height="500">
<path d="M0 0 C16.5 0 33 0 50 0 C50.86988854 4.34944269 51.03595522 5.97128525 50 10 C53.3 10 56.6 10 60 10 C60 13.3 60 16.6 60 20 C63.3 20 66.6 20 70 20 C70 23.3 70 26.6 70 30 C66.7 30 63.4 30 60 30 C60 33.63 60 37.26 60 41 C53.07 41 46.14 41 39 41 C39 37.37 39 33.74 39 30 C29.76 30 20.52 30 11 30 C11 33.63 11 37.26 11 41 C7.7 41 4.4 41 1 41 C1 47.27 1 53.54 1 60 C-2.3 60 -5.6 60 -9 60 C-9 69.24 -9 78.48 -9 88 C-6.03 88 -3.06 88 0 88 C0 84.7 0 81.4 0 78 C2.97 78 5.94 78 9 78 C8.9690625 75.8034375 8.9690625 75.8034375 8.9375 73.5625 C8.91607993 72.04167482 8.92820036 70.51928038 9 69 C10 68 10 68 12.86743164 67.88647461 C14.11903076 67.89171143 15.37062988 67.89694824 16.66015625 67.90234375 C17.65685585 67.90446617 17.65685585 67.90446617 18.6736908 67.90663147 C20.80333899 67.91224482 22.93288339 67.92479946 25.0625 67.9375 C26.50325369 67.94251329 27.94400903 67.94707649 29.38476562 67.95117188 C32.92321102 67.96221855 36.46159539 67.97949208 40 68 C40 71.3 40 74.6 40 78 C42.97 78 45.94 78 49 78 C48.9690625 75.8034375 48.9690625 75.8034375 48.9375 73.5625 C48.91607993 72.04167482 48.92820036 70.51928038 49 69 C50 68 50 68 52.77563477 67.88647461 C53.98533936 67.89171143 55.19504395 67.89694824 56.44140625 67.90234375 C57.74658203 67.90556641 59.05175781 67.90878906 60.39648438 67.91210938 C61.7851569 67.92046599 63.17382877 67.92893095 64.5625 67.9375 C65.95507656 67.94251334 67.34765481 67.94707653 68.74023438 67.95117188 C72.1601987 67.96300566 75.58007844 67.9794912 79 68 C79 71.3 79 74.6 79 78 C85.6 78 92.2 78 99 78 C99.33 80.97 99.66 83.94 100 87 C101.299375 87.144375 102.59875 87.28875 103.9375 87.4375 C107.875 87.875 107.875 87.875 109 89 C109.14193337 92.00331018 109.04236378 94.99217134 109 98 C111.97 98 114.94 98 118 98 C118 104.27 118 110.54 118 117 C119.629375 116.979375 121.25875 116.95875 122.9375 116.9375 C124.62499341 116.91613932 126.31391034 116.92794489 128 117 C129 118 129 118 129.11352539 119.94946289 C129.10828857 120.7821167 129.10305176 121.61477051 129.09765625 122.47265625 C129.09443359 123.37177734 129.09121094 124.27089844 129.08789062 125.19726562 C129.07951172 126.14279297 129.07113281 127.08832031 129.0625 128.0625 C129.05798828 129.01189453 129.05347656 129.96128906 129.04882812 130.93945312 C129.0370011 133.29303065 129.02052025 135.64648477 129 138 C129.66 137.67 130.32 137.34 131 137 C134.5625 136.875 134.5625 136.875 138 137 C139 138 139 138 139.12025452 140.36012268 C139.11803391 141.40603073 139.11581329 142.45193878 139.11352539 143.52954102 C139.11344986 144.71068985 139.11337433 145.89183868 139.11329651 147.10877991 C139.10813522 148.3941716 139.10297394 149.67956329 139.09765625 151.00390625 C139.09553383 152.9661338 139.09553383 152.9661338 139.09336853 154.96800232 C139.0895441 158.45162859 139.07971446 161.93521339 139.06866455 165.41882324 C139.05844882 168.97126708 139.05387056 172.52371759 139.04882812 176.07617188 C139.03809212 183.05079832 139.0210166 190.02539717 139 197 C135.7 197 132.4 197 129 197 C129.00785522 198.30988892 129.00785522 198.30988892 129.01586914 199.64624023 C129.03287751 202.87589273 129.04543369 206.10552245 129.05493164 209.33520508 C129.0599708 210.73495228 129.06680216 212.1346942 129.07543945 213.53442383 C129.0875232 215.54245777 129.09269807 217.55052957 129.09765625 219.55859375 C129.10551147 221.37315063 129.10551147 221.37315063 129.11352539 223.22436523 C129 226 129 226 128 227 C124.66381769 227.14257189 121.34024394 227.04228157 118 227 C118 230.3 118 233.6 118 237 C115.03 237 112.06 237 109 237 C109 240.3 109 243.6 109 247 C106.03 247 103.06 247 100 247 C99.67 249.97 99.34 252.94 99 256 C92.4 256 85.8 256 79 256 C79 259.3 79 262.6 79 266 C72.73 266 66.46 266 60 266 C60 269.3 60 272.6 60 276 C52.89754492 276.02464156 45.79511449 276.042832 38.69262695 276.05493164 C36.27432828 276.05997349 33.85603267 276.06680678 31.43774414 276.07543945 C27.97020717 276.08751157 24.50271034 276.09322963 21.03515625 276.09765625 C19.94662857 276.10281754 18.85810089 276.10797882 17.73658752 276.11329651 C16.23514442 276.11340981 16.23514442 276.11340981 14.70336914 276.11352539 C13.37433311 276.11685631 13.37433311 276.11685631 12.01844788 276.12025452 C10 276 10 276 9 275 C8.92820036 273.48071962 8.91607993 271.95832518 8.9375 270.4375 C8.94652344 269.61121094 8.95554687 268.78492188 8.96484375 267.93359375 C8.98224609 266.97646484 8.98224609 266.97646484 9 266 C6.36 266 3.72 266 1 266 C1 269.3 1 272.6 1 276 C-9.23 276 -19.46 276 -30 276 C-30 272.7 -30 269.4 -30 266 C-32.64 266 -35.28 266 -38 266 C-38 269.3 -38 272.6 -38 276 C-45.10245508 276.02464156 -52.20488551 276.042832 -59.30737305 276.05493164 C-61.72567172 276.05997349 -64.14396733 276.06680678 -66.56225586 276.07543945 C-70.02979283 276.08751157 -73.49728966 276.09322963 -76.96484375 276.09765625 C-78.05337143 276.10281754 -79.14189911 276.10797882 -80.26341248 276.11329651 C-81.76485558 276.11340981 -81.76485558 276.11340981 -83.29663086 276.11352539 C-84.62566689 276.11685631 -84.62566689 276.11685631 -85.98155212 276.12025452 C-88 276 -88 276 -89 275 C-89 272.03 -89 269.06 -89 266 C-98.57 266 -108.14 266 -118 266 C-118 262.7 -118 259.4 -118 256 C-124.6 256 -131.2 256 -138 256 C-138 253.03 -138 250.06 -138 247 C-140.1965625 247.0309375 -140.1965625 247.0309375 -142.4375 247.0625 C-143.95832518 247.08392007 -145.48071962 247.07179964 -147 247 C-148 246 -148 246 -148.09765625 243.93359375 C-148.06510417 241.62239583 -148.03255208 239.31119792 -148 237 C-150.97 237 -153.94 237 -157 237 C-157 233.7 -157 230.4 -157 227 C-159.1965625 227.0309375 -159.1965625 227.0309375 -161.4375 227.0625 C-162.95832518 227.08392007 -164.48071962 227.07179964 -166 227 C-167 226 -167 226 -167.09765625 223.93359375 C-167.06510417 221.62239583 -167.03255208 219.31119792 -167 217 C-170.3 217 -173.6 217 -177 217 C-177 210.4 -177 203.8 -177 197 C-180.3 197 -183.6 197 -187 197 C-187 180.5 -187 164 -187 147 C-183.7 147 -180.4 147 -177 147 C-177 140.73 -177 134.46 -177 128 C-173.7 128 -170.4 128 -167 128 C-167 121.4 -167 114.8 -167 108 C-163.7 108 -160.4 108 -157 108 C-157 104.7 -157 101.4 -157 98 C-154.03 98 -151.06 98 -148 98 C-148.020625 96.535625 -148.04125 95.07125 -148.0625 93.5625 C-148.08392007 92.04167482 -148.07179964 90.51928038 -148 89 C-147 88 -147 88 -145.14233398 87.88647461 C-143.95619507 87.89432983 -143.95619507 87.89432983 -142.74609375 87.90234375 C-141.46508789 87.90717773 -141.46508789 87.90717773 -140.15820312 87.91210938 C-139.26037109 87.92048828 -138.36253906 87.92886719 -137.4375 87.9375 C-136.53580078 87.94201172 -135.63410156 87.94652344 -134.70507812 87.95117188 C-132.46998686 87.96299775 -130.23502563 87.9794778 -128 88 C-128.01160156 87.36191406 -128.02320313 86.72382813 -128.03515625 86.06640625 C-128.04417969 85.24011719 -128.05320313 84.41382813 -128.0625 83.5625 C-128.07410156 82.73878906 -128.08570313 81.91507812 -128.09765625 81.06640625 C-128 79 -128 79 -127 78 C-125.5112814 77.91330568 -124.018555 77.89296506 -122.52734375 77.90234375 C-121.62822266 77.90556641 -120.72910156 77.90878906 -119.80273438 77.91210938 C-118.38444336 77.92467773 -118.38444336 77.92467773 -116.9375 77.9375 C-115.5134082 77.94426758 -115.5134082 77.94426758 -114.06054688 77.95117188 C-111.70700469 77.96299872 -109.35349468 77.98093479 -107 78 C-107 81.3 -107 84.6 -107 88 C-104.36 88 -101.72 88 -99 88 C-99.01160156 87.36191406 -99.02320313 86.72382813 -99.03515625 86.06640625 C-99.04417969 85.24011719 -99.05320312 84.41382813 -99.0625 83.5625 C-99.07410156 82.73878906 -99.08570313 81.91507812 -99.09765625 81.06640625 C-99 79 -99 79 -98 78 C-96.48071962 77.92820036 -94.95832518 77.91607993 -93.4375 77.9375 C-92.19806641 77.95103516 -92.19806641 77.95103516 -90.93359375 77.96484375 C-89.97646484 77.98224609 -89.97646484 77.98224609 -89 78 C-89.01160156 77.36191406 -89.02320313 76.72382813 -89.03515625 76.06640625 C-89.04417969 75.24011719 -89.05320312 74.41382813 -89.0625 73.5625 C-89.07410156 72.73878906 -89.08570313 71.91507812 -89.09765625 71.06640625 C-89 69 -89 69 -88 68 C-85.78144736 67.91216458 -83.56011504 67.89305391 -81.33984375 67.90234375 C-80.34314415 67.90446617 -80.34314415 67.90446617 -79.3263092 67.90663147 C-77.19666101 67.91224482 -75.06711661 67.92479946 -72.9375 67.9375 C-71.49674631 67.94251329 -70.05599097 67.94707649 -68.61523438 67.95117188 C-65.07678898 67.96221855 -61.53840461 67.97949208 -58 68 C-58 71.3 -58 74.6 -58 78 C-54.7 78 -51.4 78 -48 78 C-48 81.3 -48 84.6 -48 88 C-45.03 88.33 -42.06 88.66 -39 89 C-39 75.8 -39 62.6 -39 49 C-36.03 49 -33.06 49 -30 49 C-30 42.4 -30 35.8 -30 29 C-26.7 29 -23.4 29 -20 29 C-20 26.03 -20 23.06 -20 20 C-16.7 20 -13.4 20 -10 20 C-10 16.7 -10 13.4 -10 10 C-6.7 10 -3.4 10 0 10 C0 6.7 0 3.4 0 0 Z " fill="#9A5C2F" transform="translate(274,112)"/>
<path d="M0 0 C1.25159912 0.00523682 2.50319824 0.01047363 3.79272461 0.01586914 C4.78942421 0.01799156 4.78942421 0.01799156 5.80625916 0.02015686 C7.93590735 0.02577021 10.06545175 0.03832485 12.19506836 0.05102539 C13.63582205 0.05603868 15.07657739 0.06060188 16.51733398 0.06469727 C20.05577938 0.07574394 23.59416375 0.09301747 27.13256836 0.11352539 C27.13256836 3.41352539 27.13256836 6.71352539 27.13256836 10.11352539 C30.43256836 10.11352539 33.73256836 10.11352539 37.13256836 10.11352539 C37.13256836 13.41352539 37.13256836 16.71352539 37.13256836 20.11352539 C39.11256836 20.11352539 41.09256836 20.11352539 43.13256836 20.11352539 C43.13256836 20.44352539 43.13256836 20.77352539 43.13256836 21.11352539 C40.82256836 21.11352539 38.51256836 21.11352539 36.13256836 21.11352539 C36.13256836 24.41352539 36.13256836 27.71352539 36.13256836 31.11352539 C39.43256836 31.11352539 42.73256836 31.11352539 46.13256836 31.11352539 C46.13256836 34.08352539 46.13256836 37.05352539 46.13256836 40.11352539 C39.60052408 40.95636981 33.87324791 41.11352539 27.13256836 41.11352539 C27.13256836 70.15352539 27.13256836 99.19352539 27.13256836 129.11352539 C30.10256836 129.11352539 33.07256836 129.11352539 36.13256836 129.11352539 C36.13256836 141.98352539 36.13256836 154.85352539 36.13256836 168.11352539 C39.43256836 168.11352539 42.73256836 168.11352539 46.13256836 168.11352539 C46.13256836 177.68352539 46.13256836 187.25352539 46.13256836 197.11352539 C30.29256836 197.11352539 14.45256836 197.11352539 -1.86743164 197.11352539 C-1.86743164 193.81352539 -1.86743164 190.51352539 -1.86743164 187.11352539 C-11.76743164 187.11352539 -21.66743164 187.11352539 -31.86743164 187.11352539 C-31.86743164 184.14352539 -31.86743164 181.17352539 -31.86743164 178.11352539 C-28.56743164 178.11352539 -25.26743164 178.11352539 -21.86743164 178.11352539 C-21.86743164 174.81352539 -21.86743164 171.51352539 -21.86743164 168.11352539 C-25.16743164 168.11352539 -28.46743164 168.11352539 -31.86743164 168.11352539 C-31.86743164 164.81352539 -31.86743164 161.51352539 -31.86743164 158.11352539 C-35.16743164 158.11352539 -38.46743164 158.11352539 -41.86743164 158.11352539 C-41.86743164 161.74352539 -41.86743164 165.37352539 -41.86743164 169.11352539 C-38.89743164 169.11352539 -35.92743164 169.11352539 -32.86743164 169.11352539 C-32.86743164 171.75352539 -32.86743164 174.39352539 -32.86743164 177.11352539 C-38.80743164 177.11352539 -44.74743164 177.11352539 -50.86743164 177.11352539 C-50.86743164 174.14352539 -50.86743164 171.17352539 -50.86743164 168.11352539 C-54.49743164 168.11352539 -58.12743164 168.11352539 -61.86743164 168.11352539 C-61.86743164 164.81352539 -61.86743164 161.51352539 -61.86743164 158.11352539 C-64.83743164 158.11352539 -67.80743164 158.11352539 -70.86743164 158.11352539 C-70.86743164 154.81352539 -70.86743164 151.51352539 -70.86743164 148.11352539 C-74.16743164 148.11352539 -77.46743164 148.11352539 -80.86743164 148.11352539 C-80.86743164 151.41352539 -80.86743164 154.71352539 -80.86743164 158.11352539 C-81.19743164 158.11352539 -81.52743164 158.11352539 -81.86743164 158.11352539 C-81.86743164 155.14352539 -81.86743164 152.17352539 -81.86743164 149.11352539 C-85.16743164 149.11352539 -88.46743164 149.11352539 -91.86743164 149.11352539 C-91.86743164 142.51352539 -91.86743164 135.91352539 -91.86743164 129.11352539 C-95.16743164 129.11352539 -98.46743164 129.11352539 -101.86743164 129.11352539 C-101.86743164 112.61352539 -101.86743164 96.11352539 -101.86743164 79.11352539 C-98.56743164 79.11352539 -95.26743164 79.11352539 -91.86743164 79.11352539 C-91.86743164 72.84352539 -91.86743164 66.57352539 -91.86743164 60.11352539 C-88.56743164 60.11352539 -85.26743164 60.11352539 -81.86743164 60.11352539 C-81.86743164 53.51352539 -81.86743164 46.91352539 -81.86743164 40.11352539 C-78.56743164 40.11352539 -75.26743164 40.11352539 -71.86743164 40.11352539 C-71.86743164 36.81352539 -71.86743164 33.51352539 -71.86743164 30.11352539 C-68.89743164 30.11352539 -65.92743164 30.11352539 -62.86743164 30.11352539 C-62.88805664 28.64915039 -62.90868164 27.18477539 -62.92993164 25.67602539 C-62.95135171 24.15520021 -62.93923128 22.63280577 -62.86743164 21.11352539 C-61.86743164 20.11352539 -61.86743164 20.11352539 -60.00976562 20 C-58.82362671 20.00785522 -58.82362671 20.00785522 -57.61352539 20.01586914 C-56.33251953 20.02070313 -56.33251953 20.02070313 -55.02563477 20.02563477 C-54.12780273 20.03401367 -53.2299707 20.04239258 -52.30493164 20.05102539 C-51.40323242 20.05553711 -50.5015332 20.06004883 -49.57250977 20.06469727 C-47.3374185 20.07652315 -45.10245727 20.09300319 -42.86743164 20.11352539 C-42.8790332 19.47543945 -42.89063477 18.83735352 -42.90258789 18.17993164 C-42.91161133 17.35364258 -42.92063477 16.52735352 -42.92993164 15.67602539 C-42.9415332 14.85231445 -42.95313477 14.02860352 -42.96508789 13.17993164 C-42.86743164 11.11352539 -42.86743164 11.11352539 -41.86743164 10.11352539 C-40.37871304 10.02683107 -38.88598664 10.00649045 -37.39477539 10.01586914 C-36.4956543 10.0190918 -35.5965332 10.02231445 -34.67016602 10.02563477 C-33.72463867 10.03401367 -32.77911133 10.04239258 -31.80493164 10.05102539 C-30.38083984 10.05779297 -30.38083984 10.05779297 -28.92797852 10.06469727 C-26.57443633 10.07652411 -24.22092632 10.09446018 -21.86743164 10.11352539 C-21.86743164 13.41352539 -21.86743164 16.71352539 -21.86743164 20.11352539 C-19.22743164 20.11352539 -16.58743164 20.11352539 -13.86743164 20.11352539 C-13.8790332 19.47543945 -13.89063477 18.83735352 -13.90258789 18.17993164 C-13.91161133 17.35364258 -13.92063477 16.52735352 -13.92993164 15.67602539 C-13.9415332 14.85231445 -13.95313477 14.02860352 -13.96508789 13.17993164 C-13.86743164 11.11352539 -13.86743164 11.11352539 -12.86743164 10.11352539 C-11.34815126 10.04172575 -9.82575682 10.02960532 -8.30493164 10.05102539 C-7.47864258 10.06004883 -6.65235352 10.06907227 -5.80102539 10.07836914 C-5.16293945 10.0899707 -4.52485352 10.10157227 -3.86743164 10.11352539 C-3.8790332 9.47543945 -3.89063477 8.83735352 -3.90258789 8.17993164 C-3.91161133 7.35364258 -3.92063477 6.52735352 -3.92993164 5.67602539 C-3.9415332 4.85231445 -3.95313477 4.02860352 -3.96508789 3.17993164 C-3.81084304 -0.08388937 -3.31039747 0.13106299 0 0 Z " fill="#FBAF1D" transform="translate(188.867431640625,179.886474609375)"/>
<path d="M0 0 C3.3 0 6.6 0 10 0 C9.01 0.33 8.02 0.66 7 1 C6.0557369 3.28196917 5.899159 4.59663601 6.5 7 C7 9 7 9 6.52587891 10.76098633 C5.87436326 13.53491854 5.97216706 15.97748438 6.0859375 18.82421875 C6.12976563 19.93474609 6.17359375 21.04527344 6.21875 22.18945312 C6.29609375 23.92098633 6.29609375 23.92098633 6.375 25.6875 C6.41882813 26.85345703 6.46265625 28.01941406 6.5078125 29.22070312 C6.23064201 34.47958716 6.23064201 34.47958716 8 39 C10.32817964 39.36760731 12.6618385 39.70241581 15 40 C15 42.31 15 44.62 15 47 C15.99 47.33 16.98 47.66 18 48 C18 50.97 18 53.94 18 57 C19.918125 56.9690625 19.918125 56.9690625 21.875 56.9375 C27.03253685 56.85431392 31.74891968 57.47489197 37 58 C37 67.57 37 77.14 37 87 C40.3 87 43.6 87 47 87 C47 77.1 47 67.2 47 57 C43.7 57 40.4 57 37 57 C37 54.03 37 51.06 37 48 C34.03 48 31.06 48 28 48 C28 44.7 28 41.4 28 38 C30.97 38 33.94 38 37 38 C37 35.03 37 32.06 37 29 C46.57 29 56.14 29 66 29 C66 32.63 66 36.26 66 40 C68.31 40.33 70.62 40.66 73 41 C73 41.66 73 42.32 73 43 C69.7 43 66.4 43 63 43 C63 43.99 63 44.98 63 46 C63.99 45.67 64.98 45.34 66 45 C66.66 45.33 67.32 45.66 68 46 C68 49.3 68 52.6 68 56 C70.97 56.33 73.94 56.66 77 57 C77 60.3 77 63.6 77 67 C78.41577477 65.81575674 78.41577477 65.81575674 78.0625 62.4375 C78.041875 61.303125 78.02125 60.16875 78 59 C78.66 59 79.32 59 80 59 C80.99 57.02 81.98 55.04 83 53 C81.02 53 79.04 53 77 53 C77 52.34 77 51.68 77 51 C79.3260857 50.61936779 81.66055264 50.28730055 84 50 C85 51 85 51 85.09765625 52.84765625 C85.06510417 54.8984375 85.03255208 56.94921875 85 59 C88.3 59 91.6 59 95 59 C95 65.27 95 71.54 95 78 C97.97 78 100.94 78 104 78 C104 84.27 104 90.54 104 97 C107.63 97 111.26 97 115 97 C115 112.84 115 128.68 115 145 C111.37 145 107.74 145 104 145 C104 154.57 104 164.14 104 174 C101.36 174 98.72 174 96 174 C96 180.93 96 187.86 96 195 C98.97 195 101.94 195 105 195 C105 198.3 105 201.6 105 205 C98.73 205 92.46 205 86 205 C86 207.97 86 210.94 86 214 C69.83 214 53.66 214 37 214 C37 204.43 37 194.86 37 185 C33.7 185 30.4 185 27 185 C27 194.57 27 204.14 27 214 C17.43 214 7.86 214 -2 214 C-2 204.43 -2 194.86 -2 185 C-5.3 185 -8.6 185 -12 185 C-12 171.8 -12 158.6 -12 145 C-14.97 145 -17.94 145 -21 145 C-21 125.86 -21 106.72 -21 87 C-17.7 87 -14.4 87 -11 87 C-11 77.43 -11 67.86 -11 58 C-8.03 58 -5.06 58 -2 58 C-2.33 54.37 -2.66 50.74 -3 47 C-5.31 46.67 -7.62 46.34 -10 46 C-10 43.69 -10 41.38 -10 39 C-6.7 39 -3.4 39 0 39 C0 26.13 0 13.26 0 0 Z " fill="#FAAF1D" transform="translate(247,163)"/>
<path d="M0 0 C9.57 0 19.14 0 29 0 C29 3.63 29 7.26 29 11 C31.31 11.33 33.62 11.66 36 12 C36 12.66 36 13.32 36 14 C32.7 14 29.4 14 26 14 C26 14.99 26 15.98 26 17 C26.99 16.67 27.98 16.34 29 16 C29.66 16.33 30.32 16.66 31 17 C31 20.3 31 23.6 31 27 C33.97 27.33 36.94 27.66 40 28 C40 31.3 40 34.6 40 38 C41.41577477 36.81575674 41.41577477 36.81575674 41.0625 33.4375 C41.041875 32.303125 41.02125 31.16875 41 30 C41.66 30 42.32 30 43 30 C43.99 28.02 44.98 26.04 46 24 C44.02 24 42.04 24 40 24 C40 23.34 40 22.68 40 22 C42.3260857 21.61936779 44.66055264 21.28730055 47 21 C48 22 48 22 48.09765625 23.84765625 C48.06510417 25.8984375 48.03255208 27.94921875 48 30 C51.3 30 54.6 30 58 30 C58 36.27 58 42.54 58 49 C60.97 49 63.94 49 67 49 C67 55.27 67 61.54 67 68 C70.63 68 74.26 68 78 68 C78 83.84 78 99.68 78 116 C74.37 116 70.74 116 67 116 C67 125.57 67 135.14 67 145 C64.36 145 61.72 145 59 145 C59 151.93 59 158.86 59 166 C61.97 166 64.94 166 68 166 C68 169.3 68 172.6 68 176 C61.73 176 55.46 176 49 176 C49 178.97 49 181.94 49 185 C32.83 185 16.66 185 0 185 C0 175.43 0 165.86 0 156 C3.3 156 6.6 156 10 156 C10 143.13 10 130.26 10 117 C13.3 117 16.6 117 20 117 C20 97.53 20 78.06 20 58 C16.7 58 13.4 58 10 58 C10 48.1 10 38.2 10 28 C6.7 28 3.4 28 0 28 C0 25.03 0 22.06 0 19 C-2.97 19 -5.94 19 -9 19 C-9 15.7 -9 12.4 -9 9 C-6.03 9 -3.06 9 0 9 C0 6.03 0 3.06 0 0 Z " fill="#FAAF1E" transform="translate(284,192)"/>
<path d="M0 0 C16.5 0 33 0 50 0 C50.86988854 4.34944269 51.03595522 5.97128525 50 10 C53.3 10 56.6 10 60 10 C60 13.3 60 16.6 60 20 C63.3 20 66.6 20 70 20 C70 23.3 70 26.6 70 30 C66.7 30 63.4 30 60 30 C60 33.63 60 37.26 60 41 C53.07 41 46.14 41 39 41 C39 37.37 39 33.74 39 30 C29.76 30 20.52 30 11 30 C11 33.63 11 37.26 11 41 C7.7 41 4.4 41 1 41 C1 47.27 1 53.54 1 60 C-2.3 60 -5.6 60 -9 60 C-9 69.24 -9 78.48 -9 88 C-6.03 88 -3.06 88 0 88 C0 84.7 0 81.4 0 78 C2.97 78 5.94 78 9 78 C8.979375 76.535625 8.95875 75.07125 8.9375 73.5625 C8.91607993 72.04167482 8.92820036 70.51928038 9 69 C10 68 10 68 12.86743164 67.88647461 C14.11903076 67.89171143 15.37062988 67.89694824 16.66015625 67.90234375 C17.65685585 67.90446617 17.65685585 67.90446617 18.6736908 67.90663147 C20.80333899 67.91224482 22.93288339 67.92479946 25.0625 67.9375 C26.50325369 67.94251329 27.94400903 67.94707649 29.38476562 67.95117188 C32.92321102 67.96221855 36.46159539 67.97949208 40 68 C40 71.3 40 74.6 40 78 C42.97 78 45.94 78 49 78 C48.979375 76.535625 48.95875 75.07125 48.9375 73.5625 C48.91607993 72.04167482 48.92820036 70.51928038 49 69 C50 68 50 68 52.77563477 67.88647461 C53.98533936 67.89171143 55.19504395 67.89694824 56.44140625 67.90234375 C57.74658203 67.90556641 59.05175781 67.90878906 60.39648438 67.91210938 C61.7851569 67.92046599 63.17382877 67.92893095 64.5625 67.9375 C65.95507656 67.94251334 67.34765481 67.94707653 68.74023438 67.95117188 C72.1601987 67.96300566 75.58007844 67.9794912 79 68 C79 68.66 79 69.32 79 70 C69.43 70 59.86 70 50 70 C50 72.97 50 75.94 50 79 C46.37 79 42.74 79 39 79 C39 76.03 39 73.06 39 70 C29.43 70 19.86 70 10 70 C10 72.97 10 75.94 10 79 C7.03 79 4.06 79 1 79 C1 85.6 1 92.2 1 99 C3.97 99 6.94 99 10 99 C10 101.97 10 104.94 10 108 C13.3 108 16.6 108 20 108 C20 117.9 20 127.8 20 138 C16.7 138 13.4 138 10 138 C10 128.43 10 118.86 10 109 C6.7 109 3.4 109 0 109 C-3.02835299 108.77508254 -5.98592677 108.38891267 -9 108 C-9.04898438 107.36191406 -9.09796875 106.72382813 -9.1484375 106.06640625 C-9.22320312 105.24011719 -9.29796875 104.41382813 -9.375 103.5625 C-9.47941406 102.32693359 -9.47941406 102.32693359 -9.5859375 101.06640625 C-9.79089844 100.04353516 -9.79089844 100.04353516 -10 99 C-10.99 98.505 -10.99 98.505 -12 98 C-12 95.69 -12 93.38 -12 91 C-13.11375 91.04125 -14.2275 91.0825 -15.375 91.125 C-19 91 -19 91 -21 89 C-21.3347168 86.46557617 -21.3347168 86.46557617 -21.44921875 83.29296875 C-21.49240234 82.14892578 -21.53558594 81.00488281 -21.58007812 79.82617188 C-21.61552734 78.62541016 -21.65097656 77.42464844 -21.6875 76.1875 C-21.73455078 74.99833984 -21.78160156 73.80917969 -21.83007812 72.58398438 C-22.16202475 62.89223132 -22.16202475 62.89223132 -21 58 C-21.33 58 -21.66 58 -22 58 C-22 56.35 -22 54.7 -22 53 C-21.34 52.67 -20.68 52.34 -20 52 C-22.31 51.67 -24.62 51.34 -27 51 C-27 63.87 -27 76.74 -27 90 C-30.3 90 -33.6 90 -37 90 C-37 92.31 -37 94.62 -37 97 C-35.865625 96.979375 -34.73125 96.95875 -33.5625 96.9375 C-30 97 -30 97 -29 98 C-28.92773498 99.85287502 -28.9161878 101.70833878 -28.9375 103.5625 C-28.94652344 104.57441406 -28.95554688 105.58632812 -28.96484375 106.62890625 C-28.97644531 107.41136719 -28.98804688 108.19382812 -29 109 C-31.97 109 -34.94 109 -38 109 C-38 118.57 -38 128.14 -38 138 C-41.3 138 -44.6 138 -48 138 C-48 157.14 -48 176.28 -48 196 C-45.03 196 -42.06 196 -39 196 C-39 209.2 -39 222.4 -39 236 C-42.3 236 -45.6 236 -49 236 C-49 223.13 -49 210.26 -49 197 C-51.97 197 -54.94 197 -58 197 C-58 167.96 -58 138.92 -58 109 C-51.36038532 108.33603853 -45.54211987 107.89448194 -39 108 C-39 105.03 -39 102.06 -39 99 C-42.3 99 -45.6 99 -49 99 C-49 95.7 -49 92.4 -49 89 C-45.7 89 -42.4 89 -39 89 C-39 75.8 -39 62.6 -39 49 C-36.03 49 -33.06 49 -30 49 C-30 42.4 -30 35.8 -30 29 C-26.7 29 -23.4 29 -20 29 C-20 26.03 -20 23.06 -20 20 C-16.7 20 -13.4 20 -10 20 C-10 16.7 -10 13.4 -10 10 C-6.7 10 -3.4 10 0 10 C0 6.7 0 3.4 0 0 Z " fill="#856B54" transform="translate(274,112)"/>
<path d="M0 0 C6.6 0 13.2 0 20 0 C20.495 4.455 20.495 4.455 21 9 C22.299375 9.144375 23.59875 9.28875 24.9375 9.4375 C28.875 9.875 28.875 9.875 30 11 C30.14193337 14.00331018 30.04236378 16.99217134 30 20 C32.97 20 35.94 20 39 20 C39 26.27 39 32.54 39 39 C40.629375 38.979375 42.25875 38.95875 43.9375 38.9375 C45.62499341 38.91613932 47.31391034 38.92794489 49 39 C50 40 50 40 50.11352539 41.94946289 C50.10567017 43.1984436 50.10567017 43.1984436 50.09765625 44.47265625 C50.09282227 45.82133789 50.09282227 45.82133789 50.08789062 47.19726562 C50.07532227 48.61555664 50.07532227 48.61555664 50.0625 50.0625 C50.05798828 51.01189453 50.05347656 51.96128906 50.04882812 52.93945312 C50.0370011 55.29303065 50.02052025 57.64648477 50 60 C50.66 59.67 51.32 59.34 52 59 C55.5625 58.875 55.5625 58.875 59 59 C60 60 60 60 60.12025452 62.36012268 C60.11803391 63.40603073 60.11581329 64.45193878 60.11352539 65.52954102 C60.11341209 67.30126427 60.11341209 67.30126427 60.11329651 69.10877991 C60.10813522 70.3941716 60.10297394 71.67956329 60.09765625 73.00390625 C60.0962413 74.31205795 60.09482635 75.62020966 60.09336853 76.96800232 C60.0895441 80.45162859 60.07971446 83.93521339 60.06866455 87.41882324 C60.05844882 90.97126708 60.05387056 94.52371759 60.04882812 98.07617188 C60.03809212 105.05079832 60.0210166 112.02539717 60 119 C56.7 119 53.4 119 50 119 C50 128.57 50 138.14 50 148 C49.67 148 49.34 148 49 148 C49 138.43 49 128.86 49 119 C45.7 119 42.4 119 39 119 C39 128.57 39 138.14 39 148 C35.7 148 32.4 148 29 148 C29 154.6 29 161.2 29 168 C26.03 168 23.06 168 20 168 C19.67 167.67 19.34 167.34 19 167 C17.58429877 166.91348389 16.164405 166.89295096 14.74609375 166.90234375 C13.59258423 166.90609009 13.59258423 166.90609009 12.41577148 166.90991211 C11.43294189 166.91901611 10.4501123 166.92812012 9.4375 166.9375 C4.7659375 166.9684375 4.7659375 166.9684375 0 167 C0 160.73 0 154.46 0 148 C3.3 148 6.6 148 10 148 C10 138.43 10 128.86 10 119 C13.3 119 16.6 119 20 119 C20 102.83 20 86.66 20 70 C16.7 70 13.4 70 10 70 C10 63.4 10 56.8 10 50 C6.7 50 3.4 50 0 50 C0 43.4 0 36.8 0 30 C-3.3 30 -6.6 30 -10 30 C-10 27.03 -10 24.06 -10 21 C-13.3 21 -16.6 21 -20 21 C-20 17.7 -20 14.4 -20 11 C-22.97 11 -25.94 11 -29 11 C-29 8.03 -29 5.06 -29 2 C-19.76 2 -10.52 2 -1 2 C-0.67 4.97 -0.34 7.94 0 11 C6.27 11 12.54 11 19 11 C19 7.7 19 4.4 19 1 C12.73 1 6.46 1 0 1 C0 0.67 0 0.34 0 0 Z " fill="#CD712B" transform="translate(353,190)"/>
<path d="M0 0 C1.12535156 0.00580078 1.12535156 0.00580078 2.2734375 0.01171875 C3.02367187 0.00785156 3.77390625 0.00398437 4.546875 0 C10.14682697 0.01010822 10.14682697 0.01010822 11.2734375 1.13671875 C11.31436687 3.46969308 11.31585473 5.803771 11.2734375 8.13671875 C8.3034375 8.13671875 5.3334375 8.13671875 2.2734375 8.13671875 C2.2734375 11.43671875 2.2734375 14.73671875 2.2734375 18.13671875 C-1.0265625 18.13671875 -4.3265625 18.13671875 -7.7265625 18.13671875 C-7.7265625 24.73671875 -7.7265625 31.33671875 -7.7265625 38.13671875 C-11.0265625 38.13671875 -14.3265625 38.13671875 -17.7265625 38.13671875 C-17.7265625 44.73671875 -17.7265625 51.33671875 -17.7265625 58.13671875 C-21.0265625 58.13671875 -24.3265625 58.13671875 -27.7265625 58.13671875 C-27.7265625 74.30671875 -27.7265625 90.47671875 -27.7265625 107.13671875 C-24.4265625 107.13671875 -21.1265625 107.13671875 -17.7265625 107.13671875 C-17.7265625 116.70671875 -17.7265625 126.27671875 -17.7265625 136.13671875 C-14.4265625 136.13671875 -11.1265625 136.13671875 -7.7265625 136.13671875 C-7.7265625 139.76671875 -7.7265625 143.39671875 -7.7265625 147.13671875 C-4.7565625 147.13671875 -1.7865625 147.13671875 1.2734375 147.13671875 C1.2734375 149.77671875 1.2734375 152.41671875 1.2734375 155.13671875 C-4.6665625 155.13671875 -10.6065625 155.13671875 -16.7265625 155.13671875 C-16.7265625 152.16671875 -16.7265625 149.19671875 -16.7265625 146.13671875 C-20.3565625 146.13671875 -23.9865625 146.13671875 -27.7265625 146.13671875 C-27.7265625 142.83671875 -27.7265625 139.53671875 -27.7265625 136.13671875 C-30.6965625 136.13671875 -33.6665625 136.13671875 -36.7265625 136.13671875 C-36.7265625 132.83671875 -36.7265625 129.53671875 -36.7265625 126.13671875 C-40.0265625 126.13671875 -43.3265625 126.13671875 -46.7265625 126.13671875 C-46.7265625 129.43671875 -46.7265625 132.73671875 -46.7265625 136.13671875 C-47.0565625 136.13671875 -47.3865625 136.13671875 -47.7265625 136.13671875 C-47.7265625 133.16671875 -47.7265625 130.19671875 -47.7265625 127.13671875 C-51.0265625 127.13671875 -54.3265625 127.13671875 -57.7265625 127.13671875 C-57.7265625 120.53671875 -57.7265625 113.93671875 -57.7265625 107.13671875 C-61.0265625 107.13671875 -64.3265625 107.13671875 -67.7265625 107.13671875 C-67.7265625 90.63671875 -67.7265625 74.13671875 -67.7265625 57.13671875 C-64.4265625 57.13671875 -61.1265625 57.13671875 -57.7265625 57.13671875 C-57.7265625 50.86671875 -57.7265625 44.59671875 -57.7265625 38.13671875 C-57.3965625 38.13671875 -57.0665625 38.13671875 -56.7265625 38.13671875 C-56.7265625 44.73671875 -56.7265625 51.33671875 -56.7265625 58.13671875 C-53.4265625 58.13671875 -50.1265625 58.13671875 -46.7265625 58.13671875 C-46.7265625 51.53671875 -46.7265625 44.93671875 -46.7265625 38.13671875 C-43.4265625 38.13671875 -40.1265625 38.13671875 -36.7265625 38.13671875 C-36.7265625 31.86671875 -36.7265625 25.59671875 -36.7265625 19.13671875 C-33.4265625 18.80671875 -30.1265625 18.47671875 -26.7265625 18.13671875 C-26.3965625 15.82671875 -26.0665625 13.51671875 -25.7265625 11.13671875 C-24.51097656 11.14832031 -23.29539063 11.15992188 -22.04296875 11.171875 C-20.45833486 11.18125153 -18.87369932 11.19035188 -17.2890625 11.19921875 C-16.48662109 11.20759766 -15.68417969 11.21597656 -14.85742188 11.22460938 C-12.81361029 11.23323305 -10.76972348 11.18900025 -8.7265625 11.13671875 C-7.15390456 9.56406081 -7.41898273 7.80831846 -7.2265625 5.63671875 C-6.71300975 -0.15909086 -5.87048754 0.01059655 0 0 Z " fill="#F8B127" transform="translate(154.7265625,201.86328125)"/>
<path d="M0 0 C0 2.64 0 5.28 0 8 C3.3 8 6.6 8 10 8 C10 14.27 10 20.54 10 27 C12.97 27 15.94 27 19 27 C19 33.27 19 39.54 19 46 C22.63 46 26.26 46 30 46 C30 61.84 30 77.68 30 94 C26.37 94 22.74 94 19 94 C19 103.57 19 113.14 19 123 C16.36 123 13.72 123 11 123 C11 129.93 11 136.86 11 144 C13.97 144 16.94 144 20 144 C20 147.3 20 150.6 20 154 C0.86 154 -18.28 154 -38 154 C-38 150.7 -38 147.4 -38 144 C-34.7 144 -31.4 144 -28 144 C-28 140.7 -28 137.4 -28 134 C-24.7 134 -21.4 134 -18 134 C-18 127.73 -18 121.46 -18 115 C-14.7 115 -11.4 115 -8 115 C-8 108.4 -8 101.8 -8 95 C-5.03 95 -2.06 95 1 95 C1 69.26 1 43.52 1 17 C-1.97 17 -4.94 17 -8 17 C-7.67 16.34 -7.34 15.68 -7 15 C-6.95977609 12.6670134 -6.95679753 10.33293334 -7 8 C-6.34 8 -5.68 8 -5 8 C-4.01 6.02 -3.02 4.04 -2 2 C-3.98 2 -5.96 2 -8 2 C-8 1.34 -8 0.68 -8 0 C-4.71303767 -0.79953138 -3.28976808 -1.09658936 0 0 Z " fill="#D16E22" transform="translate(332,214)"/>
<path d="M0 0 C0.83265381 0.00523682 1.66530762 0.01047363 2.52319336 0.01586914 C3.42231445 0.0190918 4.32143555 0.02231445 5.24780273 0.02563477 C6.66609375 0.03820312 6.66609375 0.03820312 8.11303711 0.05102539 C9.06243164 0.05553711 10.01182617 0.06004883 10.98999023 0.06469727 C13.34353242 0.07652411 15.69704243 0.09446018 18.05053711 0.11352539 C18.05053711 3.74352539 18.05053711 7.37352539 18.05053711 11.11352539 C21.02053711 11.11352539 23.99053711 11.11352539 27.05053711 11.11352539 C27.05053711 17.71352539 27.05053711 24.31352539 27.05053711 31.11352539 C24.08053711 31.11352539 21.11053711 31.11352539 18.05053711 31.11352539 C18.05053711 37.38352539 18.05053711 43.65352539 18.05053711 50.11352539 C14.75053711 50.11352539 11.45053711 50.11352539 8.05053711 50.11352539 C8.05053711 59.68352539 8.05053711 69.25352539 8.05053711 79.11352539 C4.75053711 79.11352539 1.45053711 79.11352539 -1.94946289 79.11352539 C-1.94946289 101.88352539 -1.94946289 124.65352539 -1.94946289 148.11352539 C-5.24946289 148.11352539 -8.54946289 148.11352539 -11.94946289 148.11352539 C-11.94946289 138.54352539 -11.94946289 128.97352539 -11.94946289 119.11352539 C-15.24946289 119.11352539 -18.54946289 119.11352539 -21.94946289 119.11352539 C-21.94946289 102.94352539 -21.94946289 86.77352539 -21.94946289 70.11352539 C-18.64946289 70.11352539 -15.34946289 70.11352539 -11.94946289 70.11352539 C-11.94946289 63.51352539 -11.94946289 56.91352539 -11.94946289 50.11352539 C-8.64946289 50.11352539 -5.34946289 50.11352539 -1.94946289 50.11352539 C-1.94946289 43.51352539 -1.94946289 36.91352539 -1.94946289 30.11352539 C1.35053711 30.11352539 4.65053711 30.11352539 8.05053711 30.11352539 C8.05053711 26.81352539 8.05053711 23.51352539 8.05053711 20.11352539 C11.02053711 20.11352539 13.99053711 20.11352539 17.05053711 20.11352539 C16.55553711 16.64852539 16.55553711 16.64852539 16.05053711 13.11352539 C10.77053711 13.11352539 5.49053711 13.11352539 0.05053711 13.11352539 C-0.13508789 15.27915039 -0.13508789 15.27915039 -0.32446289 17.48852539 C-0.69946289 21.86352539 -0.69946289 21.86352539 -2.94946289 24.11352539 C-5.86898857 24.0960432 -8.67244174 23.97407906 -11.57446289 23.73852539 C-12.37625977 23.68180664 -13.17805664 23.62508789 -14.00415039 23.56665039 C-15.98661787 23.42504557 -17.9681534 23.2705028 -19.94946289 23.11352539 C-19.92883789 24.24790039 -19.90821289 25.38227539 -19.88696289 26.55102539 C-19.94946289 30.11352539 -19.94946289 30.11352539 -20.94946289 31.11352539 C-24.2856452 31.25609728 -27.60921895 31.15580696 -30.94946289 31.11352539 C-30.94946289 37.38352539 -30.94946289 43.65352539 -30.94946289 50.11352539 C-34.24946289 50.11352539 -37.54946289 50.11352539 -40.94946289 50.11352539 C-40.94946289 56.71352539 -40.94946289 63.31352539 -40.94946289 70.11352539 C-44.24946289 70.11352539 -47.54946289 70.11352539 -50.94946289 70.11352539 C-50.94946289 63.51352539 -50.94946289 56.91352539 -50.94946289 50.11352539 C-47.97946289 50.11352539 -45.00946289 50.11352539 -41.94946289 50.11352539 C-41.94946289 43.51352539 -41.94946289 36.91352539 -41.94946289 30.11352539 C-38.64946289 30.11352539 -35.34946289 30.11352539 -31.94946289 30.11352539 C-31.94946289 26.81352539 -31.94946289 23.51352539 -31.94946289 20.11352539 C-28.97946289 20.11352539 -26.00946289 20.11352539 -22.94946289 20.11352539 C-22.97008789 18.64915039 -22.99071289 17.18477539 -23.01196289 15.67602539 C-23.03338296 14.15520021 -23.02126253 12.63280577 -22.94946289 11.11352539 C-21.94946289 10.11352539 -21.94946289 10.11352539 -20.09179688 10 C-19.3010376 10.00523682 -18.51027832 10.01047363 -17.69555664 10.01586914 C-16.41455078 10.02070313 -16.41455078 10.02070313 -15.10766602 10.02563477 C-14.20983398 10.03401367 -13.31200195 10.04239258 -12.38696289 10.05102539 C-11.48526367 10.05553711 -10.58356445 10.06004883 -9.65454102 10.06469727 C-7.41944975 10.07652315 -5.18448852 10.09300319 -2.94946289 10.11352539 C-2.96106445 9.47543945 -2.97266602 8.83735352 -2.98461914 8.17993164 C-2.99364258 7.35364258 -3.00266602 6.52735352 -3.01196289 5.67602539 C-3.02356445 4.85231445 -3.03516602 4.02860352 -3.04711914 3.17993164 C-2.91831818 0.45450326 -2.72456284 0.15866271 0 0 Z " fill="#C5AF83" transform="translate(148.949462890625,189.886474609375)"/>
<path d="M0 0 C3.3 0 6.6 0 10 0 C10 3.3 10 6.6 10 10 C12.97 10 15.94 10 19 10 C19 13.3 19 16.6 19 20 C22.63 20 26.26 20 30 20 C30 22.97 30 25.94 30 29 C35.94 29 41.88 29 48 29 C48 26.36 48 23.72 48 21 C45.03 21 42.06 21 39 21 C39 17.37 39 13.74 39 10 C42.3 10 45.6 10 49 10 C49 13.3 49 16.6 49 20 C52.3 20 55.6 20 59 20 C59 23.3 59 26.6 59 30 C55.7 30 52.4 30 49 30 C49 32.97 49 35.94 49 39 C58.9 39 68.8 39 79 39 C79 42.3 79 45.6 79 49 C94.84 49 110.68 49 127 49 C127 39.43 127 29.86 127 20 C130.3 20 133.6 20 137 20 C137 29.57 137 39.14 137 49 C146.57 49 156.14 49 166 49 C166 39.43 166 29.86 166 20 C169.3 20 172.6 20 176 20 C176 29.57 176 39.14 176 49 C198.77 49 221.54 49 245 49 C245 49.33 245 49.66 245 50 C238.73 50 232.46 50 226 50 C226 53.3 226 56.6 226 60 C218.89754492 60.02464156 211.79511449 60.042832 204.69262695 60.05493164 C202.27432828 60.05997349 199.85603267 60.06680678 197.43774414 60.07543945 C193.97020717 60.08751157 190.50271034 60.09322963 187.03515625 60.09765625 C185.94662857 60.10281754 184.85810089 60.10797882 183.73658752 60.11329651 C182.23514442 60.11340981 182.23514442 60.11340981 180.70336914 60.11352539 C179.81734512 60.115746 178.93132111 60.11796661 178.01844788 60.12025452 C176 60 176 60 175 59 C174.92820036 57.48071962 174.91607993 55.95832518 174.9375 54.4375 C174.94652344 53.61121094 174.95554687 52.78492188 174.96484375 51.93359375 C174.98224609 50.97646484 174.98224609 50.97646484 175 50 C172.36 50 169.72 50 167 50 C167 53.3 167 56.6 167 60 C156.77 60 146.54 60 136 60 C136 56.7 136 53.4 136 50 C133.36 50 130.72 50 128 50 C128 53.3 128 56.6 128 60 C120.89754492 60.02464156 113.79511449 60.042832 106.69262695 60.05493164 C104.27432828 60.05997349 101.85603267 60.06680678 99.43774414 60.07543945 C95.97020717 60.08751157 92.50271034 60.09322963 89.03515625 60.09765625 C87.94662857 60.10281754 86.85810089 60.10797882 85.73658752 60.11329651 C84.23514442 60.11340981 84.23514442 60.11340981 82.70336914 60.11352539 C81.37433311 60.11685631 81.37433311 60.11685631 80.01844788 60.12025452 C78 60 78 60 77 59 C77 56.03 77 53.06 77 50 C67.43 50 57.86 50 48 50 C48 46.7 48 43.4 48 40 C41.4 40 34.8 40 28 40 C28 37.03 28 34.06 28 31 C25.8034375 31.0309375 25.8034375 31.0309375 23.5625 31.0625 C22.04167482 31.08392007 20.51928038 31.07179964 19 31 C18 30 18 30 17.90234375 27.93359375 C17.93489583 25.62239583 17.96744792 23.31119792 18 21 C15.03 21 12.06 21 9 21 C9 17.7 9 14.4 9 11 C6.03 11 3.06 11 0 11 C0 7.37 0 3.74 0 0 Z " fill="#8E867B" transform="translate(108,328)"/>
<path d="M0 0 C3.3 0 6.6 0 10 0 C10.10372765 6.43111423 9.72027812 12.60753173 9 19 C6.03 19 3.06 19 0 19 C0 22.3 0 25.6 0 29 C2.97 29 5.94 29 9 29 C9 35.27 9 41.54 9 48 C6.03 48 3.06 48 0 48 C0 45.03 0 42.06 0 39 C-5.94 39.33 -11.88 39.66 -18 40 C-18 52.87 -18 65.74 -18 79 C-21.3 79 -24.6 79 -28 79 C-28 81.31 -28 83.62 -28 86 C-26.865625 85.979375 -25.73125 85.95875 -24.5625 85.9375 C-21 86 -21 86 -20 87 C-19.92773498 88.85287502 -19.9161878 90.70833878 -19.9375 92.5625 C-19.94652344 93.57441406 -19.95554688 94.58632812 -19.96484375 95.62890625 C-19.97644531 96.41136719 -19.98804688 97.19382812 -20 98 C-22.97 98 -25.94 98 -29 98 C-29 107.57 -29 117.14 -29 127 C-32.3 127 -35.6 127 -39 127 C-39 146.14 -39 165.28 -39 185 C-36.03 185 -33.06 185 -30 185 C-30 198.2 -30 211.4 -30 225 C-33.3 225 -36.6 225 -40 225 C-40 212.13 -40 199.26 -40 186 C-42.97 186 -45.94 186 -49 186 C-49 156.96 -49 127.92 -49 98 C-42.36038532 97.33603853 -36.54211987 96.89448194 -30 97 C-30 94.03 -30 91.06 -30 88 C-33.3 88 -36.6 88 -40 88 C-40 84.7 -40 81.4 -40 78 C-36.7 78 -33.4 78 -30 78 C-30 64.8 -30 51.6 -30 38 C-27.03 38 -24.06 38 -21 38 C-21 31.4 -21 24.8 -21 18 C-17.7 18 -14.4 18 -11 18 C-11 15.03 -11 12.06 -11 9 C-7.37 9 -3.74 9 0 9 C0 6.03 0 3.06 0 0 Z " fill="#98886F" transform="translate(265,123)"/>
<path d="M0 0 C1.12535156 0.00580078 1.12535156 0.00580078 2.2734375 0.01171875 C3.02367187 0.00785156 3.77390625 0.00398437 4.546875 0 C10.14682697 0.01010822 10.14682697 0.01010822 11.2734375 1.13671875 C11.31436687 3.46969308 11.31585473 5.803771 11.2734375 8.13671875 C8.3034375 8.13671875 5.3334375 8.13671875 2.2734375 8.13671875 C2.2734375 11.43671875 2.2734375 14.73671875 2.2734375 18.13671875 C-1.0265625 18.13671875 -4.3265625 18.13671875 -7.7265625 18.13671875 C-7.7265625 24.73671875 -7.7265625 31.33671875 -7.7265625 38.13671875 C-11.0265625 38.13671875 -14.3265625 38.13671875 -17.7265625 38.13671875 C-17.7265625 44.73671875 -17.7265625 51.33671875 -17.7265625 58.13671875 C-21.6865625 58.13671875 -25.6465625 58.13671875 -29.7265625 58.13671875 C-29.71870728 60.16578369 -29.71870728 60.16578369 -29.71069336 62.23583984 C-29.69263052 67.24152976 -29.68112576 72.24721678 -29.67163086 77.25292969 C-29.66659359 79.42187992 -29.65976359 81.59082675 -29.65112305 83.75976562 C-29.63903099 86.87240438 -29.63332822 89.98499835 -29.62890625 93.09765625 C-29.62374496 94.07165375 -29.61858368 95.04565125 -29.61326599 96.04916382 C-29.61315269 97.40033798 -29.61315269 97.40033798 -29.61303711 98.77880859 C-29.6108165 99.57378754 -29.60859589 100.36876648 -29.60630798 101.18783569 C-29.7265625 103.13671875 -29.7265625 103.13671875 -30.7265625 105.13671875 C-31.3865625 105.13671875 -32.0465625 105.13671875 -32.7265625 105.13671875 C-33.2215625 106.12671875 -33.2215625 106.12671875 -33.7265625 107.13671875 C-38.0165625 106.80671875 -42.3065625 106.47671875 -46.7265625 106.13671875 C-46.7265625 83.69671875 -46.7265625 61.25671875 -46.7265625 38.13671875 C-43.4265625 38.13671875 -40.1265625 38.13671875 -36.7265625 38.13671875 C-36.7265625 31.86671875 -36.7265625 25.59671875 -36.7265625 19.13671875 C-33.4265625 18.80671875 -30.1265625 18.47671875 -26.7265625 18.13671875 C-26.3965625 15.82671875 -26.0665625 13.51671875 -25.7265625 11.13671875 C-24.51097656 11.14832031 -23.29539063 11.15992188 -22.04296875 11.171875 C-20.45833486 11.18125153 -18.87369932 11.19035188 -17.2890625 11.19921875 C-16.48662109 11.20759766 -15.68417969 11.21597656 -14.85742188 11.22460938 C-12.81361029 11.23323305 -10.76972348 11.18900025 -8.7265625 11.13671875 C-7.15390456 9.56406081 -7.41898273 7.80831846 -7.2265625 5.63671875 C-6.71300975 -0.15909086 -5.87048754 0.01059655 0 0 Z " fill="#F9AF20" transform="translate(154.7265625,201.86328125)"/>
<path d="M0 0 C6.6 0 13.2 0 20 0 C20 9.57 20 19.14 20 29 C16.7 29 13.4 29 10 29 C10 51.77 10 74.54 10 98 C6.7 98 3.4 98 0 98 C0 88.43 0 78.86 0 69 C-3.3 69 -6.6 69 -10 69 C-10 52.83 -10 36.66 -10 20 C-6.7 20 -3.4 20 0 20 C0 13.4 0 6.8 0 0 Z " fill="#C86C23" transform="translate(137,240)"/>
<path d="M0 0 C0.33 0 0.66 0 1 0 C1 3.63 1 7.26 1 11 C-2.3 11 -5.6 11 -9 11 C-9 17.27 -9 23.54 -9 30 C-12.3 30 -15.6 30 -19 30 C-19 39.24 -19 48.48 -19 58 C-16.03 58 -13.06 58 -10 58 C-10 54.7 -10 51.4 -10 48 C-7.03 48 -4.06 48 -1 48 C-1.0309375 45.8034375 -1.0309375 45.8034375 -1.0625 43.5625 C-1.08392007 42.04167482 -1.07179964 40.51928038 -1 39 C0 38 0 38 2.86743164 37.88647461 C4.11903076 37.89171143 5.37062988 37.89694824 6.66015625 37.90234375 C7.65685585 37.90446617 7.65685585 37.90446617 8.6736908 37.90663147 C10.80333899 37.91224482 12.93288339 37.92479946 15.0625 37.9375 C16.50325369 37.94251329 17.94400903 37.94707649 19.38476562 37.95117188 C22.92321102 37.96221855 26.46159539 37.97949208 30 38 C30 41.3 30 44.6 30 48 C32.97 48 35.94 48 39 48 C38.979375 46.535625 38.95875 45.07125 38.9375 43.5625 C38.91607993 42.04167482 38.92820036 40.51928038 39 39 C40 38 40 38 42.77563477 37.88647461 C43.98533936 37.89171143 45.19504395 37.89694824 46.44140625 37.90234375 C47.74658203 37.90556641 49.05175781 37.90878906 50.39648438 37.91210938 C51.7851569 37.92046599 53.17382877 37.92893095 54.5625 37.9375 C55.95507656 37.94251334 57.34765481 37.94707653 58.74023438 37.95117188 C62.1601987 37.96300566 65.58007844 37.9794912 69 38 C69 38.66 69 39.32 69 40 C59.43 40 49.86 40 40 40 C40 42.97 40 45.94 40 49 C36.37 49 32.74 49 29 49 C29 46.03 29 43.06 29 40 C19.43 40 9.86 40 0 40 C0 42.97 0 45.94 0 49 C-2.97 49 -5.94 49 -9 49 C-9 55.6 -9 62.2 -9 69 C-6.03 69 -3.06 69 0 69 C0 71.97 0 74.94 0 78 C3.3 78 6.6 78 10 78 C10 87.9 10 97.8 10 108 C6.7 108 3.4 108 0 108 C0 98.43 0 88.86 0 79 C-3.3 79 -6.6 79 -10 79 C-13.02835299 78.77508254 -15.98592677 78.38891267 -19 78 C-19.04898437 77.36191406 -19.09796875 76.72382813 -19.1484375 76.06640625 C-19.26058594 74.82697266 -19.26058594 74.82697266 -19.375 73.5625 C-19.44460938 72.73878906 -19.51421875 71.91507812 -19.5859375 71.06640625 C-19.72257812 70.38449219 -19.85921875 69.70257813 -20 69 C-20.66 68.67 -21.32 68.34 -22 68 C-22 65.69 -22 63.38 -22 61 C-23.11375 61.04125 -24.2275 61.0825 -25.375 61.125 C-29 61 -29 61 -31 59 C-31.3347168 56.46557617 -31.3347168 56.46557617 -31.44921875 53.29296875 C-31.49240234 52.14892578 -31.53558594 51.00488281 -31.58007812 49.82617188 C-31.61552734 48.62541016 -31.65097656 47.42464844 -31.6875 46.1875 C-31.73455078 44.99833984 -31.78160156 43.80917969 -31.83007812 42.58398438 C-32.16202475 32.89223132 -32.16202475 32.89223132 -31 28 C-31.33 28 -31.66 28 -32 28 C-32.36421725 23.50798722 -32.36421725 23.50798722 -30.8125 21.34375 C-28.37578437 19.53721945 -26.81055979 19.69569248 -23.8125 19.8125 C-22.46091797 19.85310547 -22.46091797 19.85310547 -21.08203125 19.89453125 C-20.05142578 19.94673828 -20.05142578 19.94673828 -19 20 C-19 22.97 -19 25.94 -19 29 C-16.03 29 -13.06 29 -10 29 C-10 22.73 -10 16.46 -10 10 C-6.7 10 -3.4 10 0 10 C0 6.7 0 3.4 0 0 Z " fill="#B6A382" transform="translate(284,142)"/>
<path d="M0 0 C3.3 0 6.6 0 10 0 C10 28.71 10 57.42 10 87 C12.97 87 15.94 87 19 87 C19 100.2 19 113.4 19 127 C15.7 127 12.4 127 9 127 C9 114.13 9 101.26 9 88 C6.03 88 3.06 88 0 88 C0 58.96 0 29.92 0 0 Z " fill="#AE611E" transform="translate(216,221)"/>
<path d="M0 0 C3.3 0 6.6 0 10 0 C10 3.3 10 6.6 10 10 C12.97 10 15.94 10 19 10 C19 13.3 19 16.6 19 20 C22.63 20 26.26 20 30 20 C30 22.97 30 25.94 30 29 C35.94 29 41.88 29 48 29 C48 26.36 48 23.72 48 21 C45.03 21 42.06 21 39 21 C39 17.37 39 13.74 39 10 C42.3 10 45.6 10 49 10 C49 13.3 49 16.6 49 20 C52.3 20 55.6 20 59 20 C59 23.3 59 26.6 59 30 C55.7 30 52.4 30 49 30 C49 32.97 49 35.94 49 39 C58.9 39 68.8 39 79 39 C79 42.3 79 45.6 79 49 C94.84 49 110.68 49 127 49 C127 49.33 127 49.66 127 50 C111.16 50 95.32 50 79 50 C79 52.97 79 55.94 79 59 C78.34 59 77.68 59 77 59 C77 56.03 77 53.06 77 50 C67.43 50 57.86 50 48 50 C48 46.7 48 43.4 48 40 C41.4 40 34.8 40 28 40 C28 37.03 28 34.06 28 31 C25.8034375 31.0309375 25.8034375 31.0309375 23.5625 31.0625 C22.04167482 31.08392007 20.51928038 31.07179964 19 31 C18 30 18 30 17.90234375 27.93359375 C17.93489583 25.62239583 17.96744792 23.31119792 18 21 C15.03 21 12.06 21 9 21 C9 17.7 9 14.4 9 11 C6.03 11 3.06 11 0 11 C0 7.37 0 3.74 0 0 Z " fill="#9A8661" transform="translate(108,328)"/>
<path d="M0 0 C0.33 0 0.66 0 1 0 C1 2.97 1 5.94 1 9 C3.97 9 6.94 9 10 9 C10 15.27 10 21.54 10 28 C11.629375 27.979375 13.25875 27.95875 14.9375 27.9375 C16.62499341 27.91613932 18.31391034 27.92794489 20 28 C21 29 21 29 21.11352539 30.94946289 C21.10828857 31.7821167 21.10305176 32.61477051 21.09765625 33.47265625 C21.09443359 34.37177734 21.09121094 35.27089844 21.08789062 36.19726562 C21.07951172 37.14279297 21.07113281 38.08832031 21.0625 39.0625 C21.05798828 40.01189453 21.05347656 40.96128906 21.04882812 41.93945312 C21.0370011 44.29303065 21.02052025 46.64648477 21 49 C23.64 49 26.28 49 29 49 C29 68.14 29 87.28 29 107 C26.03 107 23.06 107 20 107 C20 87.86 20 68.72 20 49 C16.7 49 13.4 49 10 49 C10 42.73 10 36.46 10 30 C7.8034375 30.0309375 7.8034375 30.0309375 5.5625 30.0625 C0.55255611 30.13306259 -3.89307635 29.56743596 -9 29 C-9 22.73 -9 16.46 -9 10 C-6.03 10 -3.06 10 0 10 C0 6.7 0 3.4 0 0 Z " fill="#D8A94F" transform="translate(382,201)"/>
<path d="M0 0 C0.33 0 0.66 0 1 0 C1 6.6 1 13.2 1 20 C4.3 20 7.6 20 11 20 C11 36.17 11 52.34 11 69 C7.7 69 4.4 69 1 69 C1 75.27 1 81.54 1 88 C4.3 88 7.6 88 11 88 C11 91.3 11 94.6 11 98 C10.67 98 10.34 98 10 98 C10 95.03 10 92.06 10 89 C6.7 89 3.4 89 0 89 C0 82.4 0 75.8 0 69 C-3.3 69 -6.6 69 -10 69 C-10 52.5 -10 36 -10 19 C-6.7 19 -3.4 19 0 19 C0 12.73 0 6.46 0 0 Z " fill="#F1C779" transform="translate(97,240)"/>
<path d="M0 0 C9.57 0 19.14 0 29 0 C29 2.97 29 5.94 29 9 C32.63 9 36.26 9 40 9 C40 6.03 40 3.06 40 0 C49.57 0 59.14 0 69 0 C69 2.97 69 5.94 69 9 C75.27 9 81.54 9 88 9 C88 12.3 88 15.6 88 19 C78.1 19.495 78.1 19.495 68 20 C68 16.7 68 13.4 68 10 C58.76 10 49.52 10 40 10 C40 12.97 40 15.94 40 19 C42.97 19 45.94 19 49 19 C49 22.3 49 25.6 49 29 C45.7 29 42.4 29 39 29 C39 25.7 39 22.4 39 19 C35.7 19 32.4 19 29 19 C29 16.03 29 13.06 29 10 C19.43 10 9.86 10 0 10 C0 12.97 0 15.94 0 19 C-2.97 19 -5.94 19 -9 19 C-9 15.7 -9 12.4 -9 9 C-6.03 9 -3.06 9 0 9 C0 6.03 0 3.06 0 0 Z " fill="#795933" transform="translate(284,182)"/>
<path d="M0 0 C3.3 0 6.6 0 10 0 C10 19.47 10 38.94 10 59 C6.7 59 3.4 59 0 59 C0 71.87 0 84.74 0 98 C-3.3 98 -6.6 98 -10 98 C-10 84.8 -10 71.6 -10 58 C-6.7 58 -3.4 58 0 58 C0 38.86 0 19.72 0 0 Z " fill="#110601" transform="translate(294,250)"/>
<path d="M0 0 C3.3 0 6.6 0 10 0 C10 9.9 10 19.8 10 30 C6.7 30 3.4 30 0 30 C0 33.3 0 36.6 0 40 C-2.97 40 -5.94 40 -9 40 C-9 43.3 -9 46.6 -9 50 C-11.97 50 -14.94 50 -18 50 C-18.33 52.97 -18.66 55.94 -19 59 C-25.6 59 -32.2 59 -39 59 C-39 61.97 -39 64.94 -39 68 C-45.6 68 -52.2 68 -59 68 C-59 65.03 -59 62.06 -59 59 C-52.73 59 -46.46 59 -40 59 C-40 55.7 -40 52.4 -40 49 C-42.97 49 -45.94 49 -49 49 C-49 45.7 -49 42.4 -49 39 C-45.7 39 -42.4 39 -39 39 C-39 41.97 -39 44.94 -39 48 C-32.73 48 -26.46 48 -20 48 C-20 45.03 -20 42.06 -20 39 C-19.67 39 -19.34 39 -19 39 C-19 42.3 -19 45.6 -19 49 C-16.03 49 -13.06 49 -10 49 C-10 42.4 -10 35.8 -10 29 C-6.7 29 -3.4 29 0 29 C0 19.43 0 9.86 0 0 Z " fill="#B7834D" transform="translate(392,309)"/>
<path d="M0 0 C3.3 0 6.6 0 10 0 C10.10372765 6.43111423 9.72027812 12.60753173 9 19 C6.03 19 3.06 19 0 19 C0 22.3 0 25.6 0 29 C2.97 29 5.94 29 9 29 C9 35.27 9 41.54 9 48 C6.03 48 3.06 48 0 48 C0 45.03 0 42.06 0 39 C-6.6 39 -13.2 39 -20 39 C-20 32.4 -20 25.8 -20 19 C-16.7 19 -13.4 19 -10 19 C-10 15.7 -10 12.4 -10 9 C-6.7 9 -3.4 9 0 9 C0 6.03 0 3.06 0 0 Z " fill="#724223" transform="translate(265,123)"/>
<path d="M0 0 C0.99 0.66 1.98 1.32 3 2 C3 2.66 3 3.32 3 4 C3.94875 3.34 4.8975 2.68 5.875 2 C9 0 9 0 11 0 C10.67 0.99 10.34 1.98 10 3 C7.9375 3.6875 7.9375 3.6875 6 4 C6.00222061 4.5593222 6.00444122 5.11864441 6.00672913 5.69491577 C6.02880582 11.50200768 6.04391661 17.30908772 6.05493164 23.11621094 C6.05996891 25.28516117 6.06679891 27.454108 6.07543945 29.62304688 C6.08753151 32.73568563 6.09323428 35.8482796 6.09765625 38.9609375 C6.10281754 39.934935 6.10797882 40.9089325 6.11329651 41.91244507 C6.11340981 43.26361923 6.11340981 43.26361923 6.11352539 44.64208984 C6.115746 45.43706879 6.11796661 46.23204773 6.12025452 47.05111694 C6 49 6 49 5 51 C4.34 51 3.68 51 3 51 C2.67 51.66 2.34 52.32 2 53 C-2.29 52.67 -6.58 52.34 -11 52 C-11 36.16 -11 20.32 -11 4 C-7.7 3.67 -4.4 3.34 -1 3 C-0.67 2.01 -0.34 1.02 0 0 Z " fill="#FBB01C" transform="translate(119,256)"/>
<path d="M0 0 C3.3 0 6.6 0 10 0 C10 15.84 10 31.68 10 48 C13.3 48 16.6 48 20 48 C20 57.9 20 67.8 20 78 C16.7 78 13.4 78 10 78 C10 68.43 10 58.86 10 49 C6.7 49 3.4 49 0 49 C0 32.83 0 16.66 0 0 Z " fill="#060000" transform="translate(127,260)"/>
<path d="M0 0 C3.3 0 6.6 0 10 0 C10 3.3 10 6.6 10 10 C16.6 10 23.2 10 30 10 C30 12.97 30 15.94 30 19 C33.3 19 36.6 19 40 19 C40 32.2 40 45.4 40 59 C39.34 59 38.68 59 38 59 C38 52.73 38 46.46 38 40 C35.03 40 32.06 40 29 40 C29 33.73 29 27.46 29 21 C25.7 21 22.4 21 19 21 C18.67 18.36 18.34 15.72 18 13 C15.69 13 13.38 13 11 13 C11 13.66 11 14.32 11 15 C11.99 14.67 12.98 14.34 14 14 C14.99 14.33 15.98 14.66 17 15 C15.25 20.75 15.25 20.75 13 23 C12.35232207 25.57061311 12.35232207 25.57061311 12 28 C13.98 28 15.96 28 18 28 C18 28.33 18 28.66 18 29 C15.69 29 13.38 29 11 29 C11 25.7 11 22.4 11 19 C9.88625 19.020625 8.7725 19.04125 7.625 19.0625 C4 19 4 19 2 18 C2 14.7 2 11.4 2 8 C0.35 8 -1.3 8 -3 8 C-3 7.01 -3 6.02 -3 5 C0.3 5 3.6 5 7 5 C7 4.34 7 3.68 7 3 C4.69 2.67 2.38 2.34 0 2 C0 1.34 0 0.68 0 0 Z " fill="#CE6E26" transform="translate(313,201)"/>
<path d="M0 0 C3.3 0 6.6 0 10 0 C10 19.47 10 38.94 10 59 C6.7 59 3.4 59 0 59 C0 39.53 0 20.06 0 0 Z " fill="#C76A25" transform="translate(206,250)"/>
<path d="M0 0 C3.3 0 6.6 0 10 0 C10 3.3 10 6.6 10 10 C12.97 10 15.94 10 19 10 C19 12.97 19 15.94 19 19 C22.3 19 25.6 19 29 19 C29 28.9 29 38.8 29 49 C25.7 49 22.4 49 19 49 C19 39.43 19 29.86 19 20 C15.7 20 12.4 20 9 20 C6.03 19.67 3.06 19.34 0 19 C0 12.73 0 6.46 0 0 Z " fill="#AE631F" transform="translate(265,201)"/>
<path d="M0 0 C3.3 0 6.6 0 10 0 C10 19.14 10 38.28 10 58 C6.7 58 3.4 58 0 58 C0 38.86 0 19.72 0 0 Z " fill="#CF7024" transform="translate(284,250)"/>
<path d="M0 0 C3.3 0 6.6 0 10 0 C10 2.97 10 5.94 10 9 C13.63 9 17.26 9 21 9 C21 12.3 21 15.6 21 19 C17.37 19 13.74 19 10 19 C10 22.3 10 25.6 10 29 C3.73 29 -2.54 29 -9 29 C-9 22.4 -9 15.8 -9 9 C-6.03 9 -3.06 9 0 9 C0 6.03 0 3.06 0 0 Z " fill="#7E5033" transform="translate(323,123)"/>
<path d="M0 0 C2.97 0 5.94 0 9 0 C9 19.47 9 38.94 9 59 C6.03 59 3.06 59 0 59 C0 39.53 0 20.06 0 0 Z " fill="#020001" transform="translate(216,250)"/>
<path d="M0 0 C2.97 0 5.94 0 9 0 C9 19.14 9 38.28 9 58 C6.03 58 3.06 58 0 58 C0 38.86 0 19.72 0 0 Z " fill="#FAAE20" transform="translate(392,250)"/>
<path d="M0 0 C2.97 0 5.94 0 9 0 C9 19.14 9 38.28 9 58 C6.03 58 3.06 58 0 58 C0 38.86 0 19.72 0 0 Z " fill="#020001" transform="translate(402,250)"/>
<path d="M0 0 C9.24 0 18.48 0 28 0 C28 3.3 28 6.6 28 10 C31.3 10 34.6 10 38 10 C38 12.97 38 15.94 38 19 C36.39592672 19.02708567 34.7917215 19.04643483 33.1875 19.0625 C31.84751953 19.07990234 31.84751953 19.07990234 30.48046875 19.09765625 C28 19 28 19 25 18 C25.66 15.69 26.32 13.38 27 11 C18.09 11 9.18 11 0 11 C0 13.64 0 16.28 0 19 C-3.3 19 -6.6 19 -10 19 C-10 16.03 -10 13.06 -10 10 C-5.545 9.505 -5.545 9.505 -1 9 C-0.67 6.03 -0.34 3.06 0 0 Z " fill="#010001" transform="translate(187,182)"/>
<path d="M0 0 C3.3 0 6.6 0 10 0 C10 16.17 10 32.34 10 49 C6.7 49 3.4 49 0 49 C0 32.83 0 16.66 0 0 Z " fill="#010001" transform="translate(363,260)"/>
<path d="M0 0 C3.3 0 6.6 0 10 0 C10 15.84 10 31.68 10 48 C6.7 48 3.4 48 0 48 C0 32.16 0 16.32 0 0 Z " fill="#060505" transform="translate(88,260)"/>
<path d="M0 0 C9.57 0 19.14 0 29 0 C29 3.63 29 7.26 29 11 C31.31 11.33 33.62 11.66 36 12 C36 12.66 36 13.32 36 14 C32.7 14 29.4 14 26 14 C26 14.99 26 15.98 26 17 C26.99 16.67 27.98 16.34 29 16 C29.66 16.33 30.32 16.66 31 17 C31 20.3 31 23.6 31 27 C31.66 27.33 32.32 27.66 33 28 C32.01 28 31.02 28 30 28 C30 25.03 30 22.06 30 19 C23.4 19 16.8 19 10 19 C10 15.7 10 12.4 10 9 C6.7 9 3.4 9 0 9 C0 6.03 0 3.06 0 0 Z " fill="#D06F22" transform="translate(284,192)"/>
<path d="M0 0 C2.64 0 5.28 0 8 0 C8 18.81 8 37.62 8 57 C5.36 57 2.72 57 0 57 C0 38.19 0 19.38 0 0 Z " fill="#010000" transform="translate(295,251)"/>
<path d="M0 0 C3.3 0 6.6 0 10 0 C9.01 0.33 8.02 0.66 7 1 C6.0557369 3.28196917 5.899159 4.59663601 6.5 7 C7 9 7 9 6.52587891 10.76098633 C5.87436326 13.53491854 5.97216706 15.97748438 6.0859375 18.82421875 C6.12976563 19.93474609 6.17359375 21.04527344 6.21875 22.18945312 C6.29609375 23.92098633 6.29609375 23.92098633 6.375 25.6875 C6.41882813 26.85345703 6.46265625 28.01941406 6.5078125 29.22070312 C6.23064201 34.47958716 6.23064201 34.47958716 8 39 C10.32817964 39.36760731 12.6618385 39.70241581 15 40 C15 42.31 15 44.62 15 47 C15.66 47.33 16.32 47.66 17 48 C-2.00455581 48.3690205 -2.00455581 48.3690205 -10 46 C-10 43.69 -10 41.38 -10 39 C-6.7 39 -3.4 39 0 39 C0 26.13 0 13.26 0 0 Z " fill="#BD8933" transform="translate(247,163)"/>
<path d="M0 0 C3.46679688 0.04882812 3.46679688 0.04882812 6.93359375 0.09765625 C6.93359375 3.39765625 6.93359375 6.69765625 6.93359375 10.09765625 C3.96359375 10.09765625 0.99359375 10.09765625 -2.06640625 10.09765625 C-2.06640625 16.36765625 -2.06640625 22.63765625 -2.06640625 29.09765625 C0.90359375 29.09765625 3.87359375 29.09765625 6.93359375 29.09765625 C10.23359375 29.42765625 13.53359375 29.75765625 16.93359375 30.09765625 C16.93359375 55.50765625 16.93359375 80.91765625 16.93359375 107.09765625 C16.60359375 107.09765625 16.27359375 107.09765625 15.93359375 107.09765625 C15.93359375 88.28765625 15.93359375 69.47765625 15.93359375 50.09765625 C10.98359375 50.59265625 10.98359375 50.59265625 5.93359375 51.09765625 C5.93359375 47.13765625 5.93359375 43.17765625 5.93359375 39.09765625 C4.94359375 39.09765625 3.95359375 39.09765625 2.93359375 39.09765625 C3.26359375 38.10765625 3.59359375 37.11765625 3.93359375 36.09765625 C4.26359375 36.09765625 4.59359375 36.09765625 4.93359375 36.09765625 C5.26359375 34.44765625 5.59359375 32.79765625 5.93359375 31.09765625 C2.63359375 31.09765625 -0.66640625 31.09765625 -4.06640625 31.09765625 C-4.29191457 10.17549564 -4.29191457 10.17549564 -3.06640625 1.09765625 C-2.06640625 0.09765625 -2.06640625 0.09765625 0 0 Z " fill="#CE7617" transform="translate(375.06640625,200.90234375)"/>
<path d="M0 0 C15.84 0 31.68 0 48 0 C48 2.97 48 5.94 48 9 C32.16 9 16.32 9 0 9 C0 6.03 0 3.06 0 0 Z " fill="#020000" transform="translate(187,378)"/>
<path d="M0 0 C15.84 0 31.68 0 48 0 C48 2.97 48 5.94 48 9 C32.16 9 16.32 9 0 9 C0 6.03 0 3.06 0 0 Z " fill="#010000" transform="translate(275,113)"/>
<path d="M0 0 C12.87 0 25.74 0 39 0 C39 2.97 39 5.94 39 9 C36.03 9 33.06 9 30 9 C30 15.6 30 22.2 30 29 C36.27 29 42.54 29 49 29 C49 25.7 49 22.4 49 19 C49.33 19 49.66 19 50 19 C50 22.63 50 26.26 50 30 C43.07 30 36.14 30 29 30 C29 23.4 29 16.8 29 10 C19.43 10 9.86 10 0 10 C0 6.7 0 3.4 0 0 Z " fill="#B28845" transform="translate(284,123)"/>
<path d="M0 0 C3.3 0 6.6 0 10 0 C10 9.9 10 19.8 10 30 C6.7 30 3.4 30 0 30 C0 32.97 0 35.94 0 39 C-3.3 39 -6.6 39 -10 39 C-10 35.7 -10 32.4 -10 29 C-6.7 29 -3.4 29 0 29 C0 19.43 0 9.86 0 0 Z " fill="#040203" transform="translate(392,309)"/>
<path d="M0 0 C6.6 0 13.2 0 20 0 C20 6.6 20 13.2 20 20 C13.4 20 6.8 20 0 20 C0 13.4 0 6.8 0 0 Z " fill="#C66B1C" transform="translate(147,220)"/>
<path d="M0 0 C15.84 0 31.68 0 48 0 C48 2.64 48 5.28 48 8 C32.16 8 16.32 8 0 8 C0 5.36 0 2.72 0 0 Z " fill="#000001" transform="translate(285,379)"/>
<path d="M0 0 C2.97 0 5.94 0 9 0 C9 12.87 9 25.74 9 39 C6.03 39 3.06 39 0 39 C0 26.13 0 13.26 0 0 Z " fill="#CE6F25" transform="translate(216,309)"/>
<path d="M0 0 C2.97 0 5.94 0 9 0 C9 12.87 9 25.74 9 39 C6.03 39 3.06 39 0 39 C0 26.13 0 13.26 0 0 Z " fill="#CE6E26" transform="translate(275,309)"/>
<path d="M0 0 C2.97 0 5.94 0 9 0 C9 12.87 9 25.74 9 39 C6.03 39 3.06 39 0 39 C0 26.13 0 13.26 0 0 Z " fill="#050001" transform="translate(226,309)"/>
<path d="M0 0 C2.97 0 5.94 0 9 0 C9 12.87 9 25.74 9 39 C6.03 39 3.06 39 0 39 C0 26.13 0 13.26 0 0 Z " fill="#040101" transform="translate(236,162)"/>
<path d="M0 0 C1.98 0 3.96 0 6 0 C7.52839661 1.52839661 7.12715198 2.89912982 7.12939453 5.02905273 C7.13254669 5.88341415 7.13569885 6.73777557 7.13894653 7.61802673 C7.1369223 8.54716385 7.13489807 9.47630096 7.1328125 10.43359375 C7.13376923 11.38186539 7.13472595 12.33013702 7.13571167 13.30714417 C7.13639363 15.31714952 7.13453823 17.32715706 7.13037109 19.3371582 C7.12502896 22.4207859 7.1303125 25.50426753 7.13671875 28.58789062 C7.13605786 30.53645866 7.13477646 32.4850266 7.1328125 34.43359375 C7.13483673 35.36070663 7.13686096 36.28781952 7.13894653 37.24302673 C7.13579437 38.10054031 7.13264221 38.95805389 7.12939453 39.84155273 C7.12820114 40.97620216 7.12820114 40.97620216 7.12698364 42.1337738 C7 44 7 44 6 46 C4.02 46 2.04 46 0 46 C0 30.82 0 15.64 0 0 Z " fill="#010000" transform="translate(129,261)"/>
<path d="M0 0 C3.3 0 6.6 0 10 0 C10 2.97 10 5.94 10 9 C13.3 9 16.6 9 20 9 C20 15.6 20 22.2 20 29 C16.7 29 13.4 29 10 29 C10 22.73 10 16.46 10 10 C6.7 10 3.4 10 0 10 C0 6.7 0 3.4 0 0 Z " fill="#2A0B02" transform="translate(333,211)"/>
<path d="M0 0 C9.57 0 19.14 0 29 0 C29 3.3 29 6.6 29 10 C19.43 10 9.86 10 0 10 C0 6.7 0 3.4 0 0 Z " fill="#0C0601" transform="translate(245,377)"/>
<path d="M0 0 C3.3 0 6.6 0 10 0 C10 9.57 10 19.14 10 29 C6.7 29 3.4 29 0 29 C0 19.43 0 9.86 0 0 Z " fill="#100603" transform="translate(274,348)"/>
<path d="M0 0 C3.3 0 6.6 0 10 0 C10 9.57 10 19.14 10 29 C6.7 29 3.4 29 0 29 C0 19.43 0 9.86 0 0 Z " fill="#100501" transform="translate(235,348)"/>
<path d="M0 0 C3.3 0 6.6 0 10 0 C10 9.57 10 19.14 10 29 C6.7 29 3.4 29 0 29 C0 19.43 0 9.86 0 0 Z " fill="#C76C26" transform="translate(147,309)"/>
<path d="M0 0 C3.3 0 6.6 0 10 0 C10 9.57 10 19.14 10 29 C6.7 29 3.4 29 0 29 C0 19.43 0 9.86 0 0 Z " fill="#020001" transform="translate(353,309)"/>
<path d="M0 0 C3.3 0 6.6 0 10 0 C10 9.57 10 19.14 10 29 C6.7 29 3.4 29 0 29 C0 19.43 0 9.86 0 0 Z " fill="#090100" transform="translate(284,221)"/>
<path d="M0 0 C2.97 0 5.94 0 9 0 C9 6.6 9 13.2 9 20 C-1.125 20 -1.125 20 -5.5625 19.5 C-7.026875 19.335 -8.49125 19.17 -10 19 C-10 16.03 -10 13.06 -10 10 C-6.7 10 -3.4 10 0 10 C0 6.7 0 3.4 0 0 Z " fill="#C8702E" transform="translate(167,201)"/>
<path d="M0 0 C9.57 0 19.14 0 29 0 C29 2.97 29 5.94 29 9 C19.43 9 9.86 9 0 9 C0 6.03 0 3.06 0 0 Z " fill="#020000" transform="translate(157,368)"/>
<path d="M0 0 C2.97 0 5.94 0 9 0 C9 9.57 9 19.14 9 29 C6.03 29 3.06 29 0 29 C0 19.43 0 9.86 0 0 Z " fill="#D16D22" transform="translate(226,348)"/>
<path d="M0 0 C2.97 0 5.94 0 9 0 C9 9.57 9 19.14 9 29 C6.03 29 3.06 29 0 29 C0 19.43 0 9.86 0 0 Z " fill="#CE6F24" transform="translate(265,348)"/>
<path d="M0 0 C2.97 0 5.94 0 9 0 C9 9.57 9 19.14 9 29 C6.03 29 3.06 29 0 29 C0 19.43 0 9.86 0 0 Z " fill="#CE6E24" transform="translate(275,221)"/>
<path d="M0 0 C2.97 0 5.94 0 9 0 C9 9.57 9 19.14 9 29 C6.03 29 3.06 29 0 29 C0 19.43 0 9.86 0 0 Z " fill="#060000" transform="translate(226,221)"/>
<path d="M0 0 C9.57 0 19.14 0 29 0 C29 2.97 29 5.94 29 9 C19.43 9 9.86 9 0 9 C0 6.03 0 3.06 0 0 Z " fill="#050102" transform="translate(324,182)"/>
<path d="M0 0 C9.57 0 19.14 0 29 0 C29 2.97 29 5.94 29 9 C19.43 9 9.86 9 0 9 C0 6.03 0 3.06 0 0 Z " fill="#050102" transform="translate(284,182)"/>
<path d="M0 0 C2.97 0 5.94 0 9 0 C9 9.57 9 19.14 9 29 C6.03 29 3.06 29 0 29 C0 19.43 0 9.86 0 0 Z " fill="#050000" transform="translate(255,172)"/>
<path d="M0 0 C9.57 0 19.14 0 29 0 C29 2.97 29 5.94 29 9 C19.43 9 9.86 9 0 9 C0 6.03 0 3.06 0 0 Z " fill="#030100" transform="translate(284,133)"/>
<path d="M0 0 C3.3 0 6.6 0 10 0 C10 3.63 10 7.26 10 11 C12.97 11 15.94 11 19 11 C19 13.64 19 16.28 19 19 C13.06 19 7.12 19 1 19 C0.27972188 12.60753173 -0.10372765 6.43111423 0 0 Z " fill="#FAB01D" transform="translate(137,338)"/>
<path d="M0 0 C9.24 0 18.48 0 28 0 C28 2.97 28 5.94 28 9 C18.76 9 9.52 9 0 9 C0 6.03 0 3.06 0 0 Z " fill="#F8AF25" transform="translate(324,192)"/>
<path d="M0 0 C1.25876953 -0.00386719 2.51753906 -0.00773438 3.81445312 -0.01171875 C10.80722102 -0.00442322 17.619173 0.28941337 24.5625 1.125 C24.5625 4.095 24.5625 7.065 24.5625 10.125 C22.95842672 10.15208567 21.3542215 10.17143483 19.75 10.1875 C18.41001953 10.20490234 18.41001953 10.20490234 17.04296875 10.22265625 C14.5625 10.125 14.5625 10.125 11.5625 9.125 C12.2225 6.815 12.8825 4.505 13.5625 2.125 C4.6525 2.125 -4.2575 2.125 -13.4375 2.125 C-13.4375 4.765 -13.4375 7.405 -13.4375 10.125 C-16.7375 10.125 -20.0375 10.125 -23.4375 10.125 C-23.4375 7.155 -23.4375 4.185 -23.4375 1.125 C-15.60817683 0.05388738 -7.89500632 -0.02418072 0 0 Z " fill="#9A5C2E" transform="translate(200.4375,190.875)"/>
<path d="M0 0 C6.6 0 13.2 0 20 0 C20.33 2.97 20.66 5.94 21 9 C23.64 9.33 26.28 9.66 29 10 C29 10.33 29 10.66 29 11 C24.545 11.495 24.545 11.495 20 12 C19.67 14.97 19.34 17.94 19 21 C12.73 21 6.46 21 0 21 C0 17.7 0 14.4 0 11 C6.27 11 12.54 11 19 11 C19 7.7 19 4.4 19 1 C12.73 1 6.46 1 0 1 C0 0.67 0 0.34 0 0 Z " fill="#F2B649" transform="translate(353,190)"/>
<path d="M0 0 C8.91 0 17.82 0 27 0 C26 5 26 5 25 7 C25.99 7.33 26.98 7.66 28 8 C18.76 8 9.52 8 0 8 C0 5.36 0 2.72 0 0 Z " fill="#D16F20" transform="translate(187,193)"/>
<path d="M0 0 C3.3 0 6.6 0 10 0 C10 15.84 10 31.68 10 48 C13.3 48 16.6 48 20 48 C20 48.33 20 48.66 20 49 C17.03 49 14.06 49 11 49 C11 58.57 11 68.14 11 78 C10.67 78 10.34 78 10 78 C10 68.43 10 58.86 10 49 C6.7 49 3.4 49 0 49 C0 32.83 0 16.66 0 0 Z M2 1 C2 16.18 2 31.36 2 47 C3.98 47 5.96 47 8 47 C9.15007105 44.69985789 9.12670485 43.39884232 9.12939453 40.84155273 C9.13412277 39.55528236 9.13412277 39.55528236 9.13894653 38.24302673 C9.1369223 37.31591385 9.13489807 36.38880096 9.1328125 35.43359375 C9.13424759 34.00975121 9.13424759 34.00975121 9.13571167 32.55714417 C9.1363928 30.548919 9.13454319 28.54069165 9.13037109 26.5324707 C9.12501601 23.44672745 9.1303214 20.36112937 9.13671875 17.27539062 C9.13605807 15.32812468 9.13477713 13.38085882 9.1328125 11.43359375 C9.13483673 10.50445663 9.13686096 9.57531952 9.13894653 8.61802673 C9.13579437 7.76366531 9.13264221 6.90930389 9.12939453 6.02905273 C9.12859894 5.27341537 9.12780334 4.51777802 9.12698364 3.73924255 C9.18835414 1.97044074 9.18835414 1.97044074 8 1 C6.02 1 4.04 1 2 1 Z " fill="#341901" transform="translate(127,260)"/>
<path d="M0 0 C3.3 0 6.6 0 10 0 C10 0.33 10 0.66 10 1 C7.36 1 4.72 1 2 1 C2 13.87 2 26.74 2 40 C-1.3 40 -4.6 40 -8 40 C-8 42.31 -8 44.62 -8 47 C-6.2984375 46.9690625 -6.2984375 46.9690625 -4.5625 46.9375 C-1 47 -1 47 0 48 C0.07205511 49.68608966 0.08386068 51.37500659 0.0625 53.0625 C0.05347656 53.98160156 0.04445312 54.90070313 0.03515625 55.84765625 C0.02355469 56.55792969 0.01195312 57.26820313 0 58 C-2.97 58 -5.94 58 -9 58 C-9 51.73 -9 45.46 -9 39 C-6.03 39 -3.06 39 0 39 C0 26.13 0 13.26 0 0 Z " fill="#AD8647" transform="translate(245,162)"/>
<path d="M0 0 C3.3 0 6.6 0 10 0 C10 6.6 10 13.2 10 20 C6.7 20 3.4 20 0 20 C0 13.4 0 6.8 0 0 Z " fill="#030001" transform="translate(353,240)"/>
<path d="M0 0 C3.3 0 6.6 0 10 0 C10 6.6 10 13.2 10 20 C6.7 20 3.4 20 0 20 C0 13.4 0 6.8 0 0 Z " fill="#030001" transform="translate(137,240)"/>
<path d="M0 0 C3.3 0 6.6 0 10 0 C10 6.6 10 13.2 10 20 C6.7 20 3.4 20 0 20 C0 13.4 0 6.8 0 0 Z " fill="#F9C35D" transform="translate(108,240)"/>
<path d="M0 0 C3.3 0 6.6 0 10 0 C10 6.6 10 13.2 10 20 C6.7 20 3.4 20 0 20 C0 13.4 0 6.8 0 0 Z " fill="#0C0906" transform="translate(98,240)"/>
<path d="M0 0 C3.3 0 6.6 0 10 0 C10 6.27 10 12.54 10 19 C6.7 19 3.4 19 0 19 C0 12.73 0 6.46 0 0 Z " fill="#0B0806" transform="translate(98,309)"/>
<path d="M0 0 C3.3 0 6.6 0 10 0 C10 6.27 10 12.54 10 19 C6.7 19 3.4 19 0 19 C0 12.73 0 6.46 0 0 Z " fill="#F9AD23" transform="translate(382,231)"/>
<path d="M0 0 C3.3 0 6.6 0 10 0 C10 6.27 10 12.54 10 19 C6.7 19 3.4 19 0 19 C0 12.73 0 6.46 0 0 Z " fill="#0C0705" transform="translate(392,231)"/>
<path d="M0 0 C3.3 0 6.6 0 10 0 C10 6.27 10 12.54 10 19 C6.7 19 3.4 19 0 19 C0 12.73 0 6.46 0 0 Z " fill="#100400" transform="translate(147,221)"/>
<path d="M0 0 C3.3 0 6.6 0 10 0 C10 6.27 10 12.54 10 19 C6.7 19 3.4 19 0 19 C0 12.73 0 6.46 0 0 Z " fill="#090602" transform="translate(108,221)"/>
<path d="M0 0 C6.27 0 12.54 0 19 0 C19 3.3 19 6.6 19 10 C12.73 10 6.46 10 0 10 C0 6.7 0 3.4 0 0 Z " fill="#010001" transform="translate(128,201)"/>
<path d="M0 0 C6.27 0 12.54 0 19 0 C19 3.3 19 6.6 19 10 C12.73 10 6.46 10 0 10 C0 6.7 0 3.4 0 0 Z " fill="#070503" transform="translate(314,142)"/>
<path d="M0 0 C3.3 0 6.6 0 10 0 C10 6.27 10 12.54 10 19 C6.7 19 3.4 19 0 19 C0 12.73 0 6.46 0 0 Z " fill="#020102" transform="translate(245,143)"/>
<path d="M0 0 C2.97 0.33 5.94 0.66 9 1 C9.33 3.64 9.66 6.28 10 9 C12.97 9.33 15.94 9.66 19 10 C19.33 13.3 19.66 16.6 20 20 C16.37 20 12.74 20 9 20 C9 16.7 9 13.4 9 10 C6.03 10 3.06 10 0 10 C0 6.7 0 3.4 0 0 Z " fill="#F1BE5D" transform="translate(118,328)"/>
<path d="M0 0 C6.6 0 13.2 0 20 0 C20 2.97 20 5.94 20 9 C13.4 9 6.8 9 0 9 C0 6.03 0 3.06 0 0 Z " fill="#070402" transform="translate(333,368)"/>
<path d="M0 0 C6.6 0 13.2 0 20 0 C20 2.97 20 5.94 20 9 C13.4 9 6.8 9 0 9 C0 6.03 0 3.06 0 0 Z " fill="#0A0505" transform="translate(147,192)"/>
<path d="M0 0 C1.25159912 0.00523682 2.50319824 0.01047363 3.79272461 0.01586914 C4.78942421 0.01799156 4.78942421 0.01799156 5.80625916 0.02015686 C7.93590735 0.02577021 10.06545175 0.03832485 12.19506836 0.05102539 C13.63582205 0.05603868 15.07657739 0.06060188 16.51733398 0.06469727 C20.05577938 0.07574394 23.59416375 0.09301747 27.13256836 0.11352539 C27.13256836 3.41352539 27.13256836 6.71352539 27.13256836 10.11352539 C30.43256836 10.11352539 33.73256836 10.11352539 37.13256836 10.11352539 C37.13256836 13.41352539 37.13256836 16.71352539 37.13256836 20.11352539 C39.11256836 20.11352539 41.09256836 20.11352539 43.13256836 20.11352539 C43.13256836 20.44352539 43.13256836 20.77352539 43.13256836 21.11352539 C40.82256836 21.11352539 38.51256836 21.11352539 36.13256836 21.11352539 C36.13256836 18.14352539 36.13256836 15.17352539 36.13256836 12.11352539 C32.83256836 12.11352539 29.53256836 12.11352539 26.13256836 12.11352539 C26.13256836 8.81352539 26.13256836 5.51352539 26.13256836 2.11352539 C16.89256836 2.11352539 7.65256836 2.11352539 -1.86743164 2.11352539 C-1.86743164 5.08352539 -1.86743164 8.05352539 -1.86743164 11.11352539 C-2.19743164 11.44352539 -2.52743164 11.77352539 -2.86743164 12.11352539 C-5.83743164 12.11352539 -8.80743164 12.11352539 -11.86743164 12.11352539 C-11.86743164 18.38352539 -11.86743164 24.65352539 -11.86743164 31.11352539 C-12.19743164 31.11352539 -12.52743164 31.11352539 -12.86743164 31.11352539 C-12.86743164 27.81352539 -12.86743164 24.51352539 -12.86743164 21.11352539 C-15.83743164 21.11352539 -18.80743164 21.11352539 -21.86743164 21.11352539 C-21.86743164 20.78352539 -21.86743164 20.45352539 -21.86743164 20.11352539 C-19.22743164 20.11352539 -16.58743164 20.11352539 -13.86743164 20.11352539 C-13.8790332 19.47543945 -13.89063477 18.83735352 -13.90258789 18.17993164 C-13.91161133 17.35364258 -13.92063477 16.52735352 -13.92993164 15.67602539 C-13.9415332 14.85231445 -13.95313477 14.02860352 -13.96508789 13.17993164 C-13.86743164 11.11352539 -13.86743164 11.11352539 -12.86743164 10.11352539 C-11.34815126 10.04172575 -9.82575682 10.02960532 -8.30493164 10.05102539 C-7.47864258 10.06004883 -6.65235352 10.06907227 -5.80102539 10.07836914 C-5.16293945 10.0899707 -4.52485352 10.10157227 -3.86743164 10.11352539 C-3.8790332 9.47543945 -3.89063477 8.83735352 -3.90258789 8.17993164 C-3.91161133 7.35364258 -3.92063477 6.52735352 -3.92993164 5.67602539 C-3.9415332 4.85231445 -3.95313477 4.02860352 -3.96508789 3.17993164 C-3.81084304 -0.08388937 -3.31039747 0.13106299 0 0 Z " fill="#9C9B9A" transform="translate(188.867431640625,179.886474609375)"/>
<path d="M0 0 C3.3 0 6.6 0 10 0 C9.67 6.27 9.34 12.54 9 19 C6.03 19 3.06 19 0 19 C0 12.73 0 6.46 0 0 Z " fill="#FAC560" transform="translate(118,221)"/>
<path d="M0 0 C6.27 0 12.54 0 19 0 C19 2.97 19 5.94 19 9 C12.73 9 6.46 9 0 9 C0 6.03 0 3.06 0 0 Z " fill="#040101" transform="translate(353,358)"/>
<path d="M0 0 C6.27 0 12.54 0 19 0 C19 2.97 19 5.94 19 9 C12.73 9 6.46 9 0 9 C0 6.03 0 3.06 0 0 Z " fill="#FBAF1D" transform="translate(333,358)"/>
<path d="M0 0 C6.27 0 12.54 0 19 0 C19 2.97 19 5.94 19 9 C12.73 9 6.46 9 0 9 C0 6.03 0 3.06 0 0 Z " fill="#020101" transform="translate(138,358)"/>
<path d="M0 0 C6.27 0 12.54 0 19 0 C19 2.97 19 5.94 19 9 C12.73 9 6.46 9 0 9 C0 6.03 0 3.06 0 0 Z " fill="#F9AF22" transform="translate(353,348)"/>
<path d="M0 0 C2.97 0 5.94 0 9 0 C9 6.27 9 12.54 9 19 C6.03 19 3.06 19 0 19 C0 12.73 0 6.46 0 0 Z " fill="#FAC560" transform="translate(108,309)"/>
<path d="M0 0 C2.97 0 5.94 0 9 0 C9 6.27 9 12.54 9 19 C6.03 19 3.06 19 0 19 C0 12.73 0 6.46 0 0 Z " fill="#020000" transform="translate(383,211)"/>
<path d="M0 0 C6.27 0 12.54 0 19 0 C19 2.97 19 5.94 19 9 C12.73 9 6.46 9 0 9 C0 6.03 0 3.06 0 0 Z " fill="#070101" transform="translate(353,192)"/>
<path d="M0 0 C2.97 0 5.94 0 9 0 C9 6.27 9 12.54 9 19 C6.03 19 3.06 19 0 19 C0 12.73 0 6.46 0 0 Z " fill="#030001" transform="translate(265,152)"/>
<path d="M0 0 C3.3 0 6.6 0 10 0 C10 16.17 10 32.34 10 49 C6.7 49 3.4 49 0 49 C0 32.83 0 16.66 0 0 Z M1 1 C1 16.18 1 31.36 1 47 C5.60532389 48.45314664 5.60532389 48.45314664 8 47 C8 31.82 8 16.64 8 1 C5.69 1 3.38 1 1 1 Z " fill="#2E0F02" transform="translate(363,260)"/>
<path d="M0 0 C0.33 0 0.66 0 1 0 C1 9.57 1 19.14 1 29 C3.64 29 6.28 29 9 29 C9 23.06 9 17.12 9 11 C9.33 11 9.66 11 10 11 C10 17.27 10 23.54 10 30 C6.7 30 3.4 30 0 30 C0 32.97 0 35.94 0 39 C-3.3 39 -6.6 39 -10 39 C-10 35.7 -10 32.4 -10 29 C-6.7 29 -3.4 29 0 29 C0 19.43 0 9.86 0 0 Z " fill="#241B13" transform="translate(392,309)"/>
<path d="M0 0 C0.66 0 1.32 0 2 0 C2 8.91 2 17.82 2 27 C7.28 27 12.56 27 18 27 C17.67 18.09 17.34 9.18 17 0 C17.99 0 18.98 0 20 0 C20 9.57 20 19.14 20 29 C13.4 29 6.8 29 0 29 C0 19.43 0 9.86 0 0 Z " fill="#F5A42A" transform="translate(245,348)"/>
<path d="M0 0 C6.6 0.33 13.2 0.66 20 1 C20 3.97 20 6.94 20 10 C22.1965625 9.9690625 22.1965625 9.9690625 24.4375 9.9375 C25.95832518 9.91607993 27.48071962 9.92820036 29 10 C30 11 30 11 30.11352539 13.77563477 C30.10828857 14.98533936 30.10305176 16.19504395 30.09765625 17.44140625 C30.09443359 18.74658203 30.09121094 20.05175781 30.08789062 21.39648438 C30.07953401 22.7851569 30.07106905 24.17382877 30.0625 25.5625 C30.05748666 26.95507656 30.05292347 28.34765481 30.04882812 29.74023438 C30.03699434 33.1601987 30.0205088 36.58007844 30 40 C29.01 39.67 28.02 39.34 27 39 C27.33 30.09 27.66 21.18 28 12 C25.03 12 22.06 12 19 12 C18.67 9.03 18.34 6.06 18 3 C12.72 2.67 7.44 2.34 2 2 C2 4.64 2 7.28 2 10 C1.67 10.66 1.34 11.32 1 12 C-0.98 12 -2.96 12 -5 12 C-5 11.67 -5 11.34 -5 11 C-3.35 11 -1.7 11 0 11 C0 7.37 0 3.74 0 0 Z " fill="#F0A32D" transform="translate(245,210)"/>
<path d="M0 0 C3.3 0 6.6 0 10 0 C10 9.57 10 19.14 10 29 C6.7 29 3.4 29 0 29 C0 19.43 0 9.86 0 0 Z M2 1 C1.20293232 4.49992696 0.88136973 7.7142231 0.90234375 11.30078125 C0.90556641 12.27724609 0.90878906 13.25371094 0.91210938 14.25976562 C0.92048828 15.26716797 0.92886719 16.27457031 0.9375 17.3125 C0.94201172 18.33923828 0.94652344 19.36597656 0.95117188 20.42382812 C0.96291816 22.94927882 0.97934435 25.47460905 1 28 C3.31 28 5.62 28 8 28 C8.02886537 23.68751391 8.04675255 19.37505238 8.0625 15.0625 C8.07087891 13.83080078 8.07925781 12.59910156 8.08789062 11.33007812 C8.09111328 10.16025391 8.09433594 8.99042969 8.09765625 7.78515625 C8.10289307 6.70113525 8.10812988 5.61711426 8.11352539 4.50024414 C8.28426897 2.05950052 8.28426897 2.05950052 7 1 C5.33382885 0.95936168 3.66611905 0.957279 2 1 Z " fill="#230800" transform="translate(353,309)"/>
<path d="M0 0 C0.33 0 0.66 0 1 0 C1 3.63 1 7.26 1 11 C-2.3 11 -5.6 11 -9 11 C-9 17.27 -9 23.54 -9 30 C-12.3 30 -15.6 30 -19 30 C-19 42.87 -19 55.74 -19 69 C-19.33 69 -19.66 69 -20 69 C-20 56.13 -20 43.26 -20 30 C-22.97 30 -25.94 30 -29 30 C-29 29.67 -29 29.34 -29 29 C-26.03 29 -23.06 29 -20 29 C-20 26.03 -20 23.06 -20 20 C-19.67 20 -19.34 20 -19 20 C-19 22.97 -19 25.94 -19 29 C-16.03 29 -13.06 29 -10 29 C-10 22.73 -10 16.46 -10 10 C-6.7 10 -3.4 10 0 10 C0 6.7 0 3.4 0 0 Z " fill="#807A6D" transform="translate(284,142)"/>
<path d="M0 0 C3.3 0 6.6 0 10 0 C10 3.3 10 6.6 10 10 C6.7 10 3.4 10 0 10 C0 6.7 0 3.4 0 0 Z " fill="#170701" transform="translate(333,348)"/>
<path d="M0 0 C3.3 0 6.6 0 10 0 C10 3.3 10 6.6 10 10 C6.7 10 3.4 10 0 10 C0 6.7 0 3.4 0 0 Z " fill="#160700" transform="translate(157,348)"/>
<path d="M0 0 C3.3 0 6.6 0 10 0 C10 3.3 10 6.6 10 10 C6.7 10 3.4 10 0 10 C0 6.7 0 3.4 0 0 Z " fill="#130301" transform="translate(343,338)"/>
<path d="M0 0 C3.3 0 6.6 0 10 0 C10 3.3 10 6.6 10 10 C6.7 10 3.4 10 0 10 C0 6.7 0 3.4 0 0 Z " fill="#CE7225" transform="translate(157,338)"/>
<path d="M0 0 C3.3 0 6.6 0 10 0 C10 3.3 10 6.6 10 10 C6.7 10 3.4 10 0 10 C0 6.7 0 3.4 0 0 Z " fill="#150601" transform="translate(147,338)"/>
<path d="M0 0 C3.3 0 6.6 0 10 0 C10 3.3 10 6.6 10 10 C6.7 10 3.4 10 0 10 C0 6.7 0 3.4 0 0 Z " fill="#F6AB27" transform="translate(382,328)"/>
<path d="M0 0 C3.3 0 6.6 0 10 0 C10 3.3 10 6.6 10 10 C6.7 10 3.4 10 0 10 C0 6.7 0 3.4 0 0 Z " fill="#140D06" transform="translate(108,328)"/>
<path d="M0 0 C3.3 0 6.6 0 10 0 C10 3.3 10 6.6 10 10 C6.7 10 3.4 10 0 10 C0 6.7 0 3.4 0 0 Z " fill="#010203" transform="translate(225,201)"/>
<path d="M0 0 C1.65 0 3.3 0 5 0 C5 5.61 5 11.22 5 17 C3.02 17 1.04 17 -1 17 C-1.02684679 14.35409986 -1.04676357 11.70846904 -1.0625 9.0625 C-1.07087891 8.30775391 -1.07925781 7.55300781 -1.08789062 6.77539062 C-1.09652441 4.85005687 -1.05224333 2.92464419 -1 1 C-0.67 0.67 -0.34 0.34 0 0 Z " fill="#000000" transform="translate(346,222)"/>
<path d="M0 0 C2.64 0 5.28 0 8 0 C8 3.3 8 6.6 8 10 C11.3 10 14.6 10 18 10 C18 16.27 18 22.54 18 29 C21.3 29 24.6 29 28 29 C28 35.6 28 42.2 28 49 C27.34 49 26.68 49 26 49 C26 42.73 26 36.46 26 30 C23.03 30 20.06 30 17 30 C17 23.73 17 17.46 17 11 C13.7 11 10.4 11 7 11 C6.67 8.36 6.34 5.72 6 3 C4.02 2.34 2.04 1.68 0 1 C0 0.67 0 0.34 0 0 Z " fill="#B46D38" transform="translate(325,211)"/>
<path d="M0 0 C0.99 0 1.98 0 3 0 C3 25.74 3 51.48 3 78 C0.03 78 -2.94 78 -6 78 C-6 77.34 -6 76.68 -6 76 C-2.535 75.505 -2.535 75.505 1 75 C1.33 50.58 1.66 26.16 2 1 C1.34 0.67 0.68 0.34 0 0 Z " fill="#FDA92D" transform="translate(330,231)"/>
<path d="M0 0 C0.66 0 1.32 0 2 0 C1.67 7.59 1.34 15.18 1 23 C1.66 23 2.32 23 3 23 C3 23.66 3 24.32 3 25 C17.19 25.33 31.38 25.66 46 26 C46 24.02 46 22.04 46 20 C44.02 20 42.04 20 40 20 C40 19.67 40 19.34 40 19 C42.31 19 44.62 19 47 19 C47 21.64 47 24.28 47 27 C31.49 27 15.98 27 0 27 C0 18.09 0 9.18 0 0 Z " fill="#F6B029" transform="translate(285,349)"/>
<path d="M0 0 C2.97922593 -0.02683987 5.95821295 -0.04676037 8.9375 -0.0625 C9.78763672 -0.07087891 10.63777344 -0.07925781 11.51367188 -0.08789062 C12.32255859 -0.09111328 13.13144531 -0.09433594 13.96484375 -0.09765625 C14.7137085 -0.10289307 15.46257324 -0.10812988 16.23413086 -0.11352539 C18 0 18 0 19 1 C19 3.97 19 6.94 19 10 C25.27 10 31.54 10 38 10 C34.37504158 11.81247921 33.4048294 12.24864042 29.671875 12.1953125 C28.87265625 12.18886719 28.0734375 12.18242187 27.25 12.17578125 C26.425 12.15902344 25.6 12.14226562 24.75 12.125 C23.90953125 12.11597656 23.0690625 12.10695312 22.203125 12.09765625 C20.13529396 12.07415817 18.06761005 12.03828908 16 12 C15.34 13.65 14.68 15.3 14 17 C13.01 17 12.02 17 11 17 C10.6363802 12.75776898 11.4606772 10.41831915 14 7 C14.66 7 15.32 7 16 7 C16.33 5.02 16.66 3.04 17 1 C11.39 1 5.78 1 0 1 C0 0.67 0 0.34 0 0 Z " fill="#D27116" transform="translate(334,201)"/>
<path d="M0 0 C2.97 0 5.94 0 9 0 C9 3.3 9 6.6 9 10 C6.03 10 3.06 10 0 10 C0 6.7 0 3.4 0 0 Z " fill="#0E0806" transform="translate(373,348)"/>
<path d="M0 0 C2.97 0 5.94 0 9 0 C9 3.3 9 6.6 9 10 C6.03 10 3.06 10 0 10 C0 6.7 0 3.4 0 0 Z " fill="#CF7224" transform="translate(167,348)"/>
<path d="M0 0 C2.97 0 5.94 0 9 0 C9 3.3 9 6.6 9 10 C6.03 10 3.06 10 0 10 C0 6.7 0 3.4 0 0 Z " fill="#FDAD1F" transform="translate(373,338)"/>
<path d="M0 0 C2.97 0 5.94 0 9 0 C9 3.3 9 6.6 9 10 C6.03 10 3.06 10 0 10 C0 6.7 0 3.4 0 0 Z " fill="#030103" transform="translate(118,338)"/>
<path d="M0 0 C3.3 0 6.6 0 10 0 C10 2.97 10 5.94 10 9 C6.7 9 3.4 9 0 9 C0 6.03 0 3.06 0 0 Z " fill="#0F0301" transform="translate(157,211)"/>
<path d="M0 0 C2.97 0 5.94 0 9 0 C9 3.3 9 6.6 9 10 C6.03 10 3.06 10 0 10 C0 6.7 0 3.4 0 0 Z " fill="#CD7320" transform="translate(216,201)"/>
<path d="M0 0 C2.97 0 5.94 0 9 0 C9 3.3 9 6.6 9 10 C6.03 10 3.06 10 0 10 C0 6.7 0 3.4 0 0 Z " fill="#C96F2D" transform="translate(177,201)"/>
<path d="M0 0 C2.97 0 5.94 0 9 0 C9 3.3 9 6.6 9 10 C6.03 10 3.06 10 0 10 C0 6.7 0 3.4 0 0 Z " fill="#0A0401" transform="translate(373,201)"/>
<path d="M0 0 C2.97 0 5.94 0 9 0 C9 3.3 9 6.6 9 10 C6.03 10 3.06 10 0 10 C0 6.7 0 3.4 0 0 Z " fill="#1D0200" transform="translate(324,201)"/>
<path d="M0 0 C2.97 0 5.94 0 9 0 C9 3.3 9 6.6 9 10 C6.03 10 3.06 10 0 10 C0 6.7 0 3.4 0 0 Z " fill="#0B0201" transform="translate(265,201)"/>
<path d="M0 0 C2.97 0 5.94 0 9 0 C9 3.3 9 6.6 9 10 C6.03 10 3.06 10 0 10 C0 6.7 0 3.4 0 0 Z " fill="#040102" transform="translate(167,201)"/>
<path d="M0 0 C2.97 0 5.94 0 9 0 C9 3.3 9 6.6 9 10 C6.03 10 3.06 10 0 10 C0 6.7 0 3.4 0 0 Z " fill="#0A0705" transform="translate(275,142)"/>
<path d="M0 0 C2.97 0 5.94 0 9 0 C9 3.3 9 6.6 9 10 C6.03 10 3.06 10 0 10 C0 6.7 0 3.4 0 0 Z " fill="#B78538" transform="translate(265,142)"/>
<path d="M0 0 C3.3 0 6.6 0 10 0 C10 2.97 10 5.94 10 9 C6.7 9 3.4 9 0 9 C0 6.03 0 3.06 0 0 Z " fill="#050201" transform="translate(333,133)"/>
<path d="M0 0 C3.3 0 6.6 0 10 0 C10 2.97 10 5.94 10 9 C6.7 9 3.4 9 0 9 C0 6.03 0 3.06 0 0 Z " fill="#010101" transform="translate(255,133)"/>
<path d="M0 0 C3.3 0 6.6 0 10 0 C10 2.97 10 5.94 10 9 C6.7 9 3.4 9 0 9 C0 6.03 0 3.06 0 0 Z " fill="#020102" transform="translate(265,123)"/>
<path d="M0 0 C3.3 0 6.6 0 10 0 C10 3.3 10 6.6 10 10 C9.34 10 8.68 10 8 10 C8 7.03 8 4.06 8 1 C6.35 1.33 4.7 1.66 3 2 C2.92572162 5.34252724 2.93453047 7.8035914 4 11 C3.70630173 12.34262065 3.3721042 13.67696283 3 15 C3 15.99 3 16.98 3 18 C7.62 18 12.24 18 17 18 C17.33 15.69 17.66 13.38 18 11 C18.33 11 18.66 11 19 11 C19 13.64 19 16.28 19 19 C13.06 19 7.12 19 1 19 C0.27972188 12.60753173 -0.10372765 6.43111423 0 0 Z " fill="#EEAF32" transform="translate(137,338)"/>
<path d="M0 0 C2.97 0 5.94 0 9 0 C8.67 0.99 8.34 1.98 8 3 C8 2.34 8 1.68 8 1 C5.69 1 3.38 1 1 1 C1 19.48 1 37.96 1 57 C3.64 56.34 6.28 55.68 9 55 C9 56.32 9 57.64 9 59 C6.03 59 3.06 59 0 59 C0 39.53 0 20.06 0 0 Z " fill="#1A0300" transform="translate(216,250)"/>
<path d="M0 0 C6.27 0 12.54 0 19 0 C19 2.97 19 5.94 19 9 C18.67 9 18.34 9 18 9 C17.67 6.69 17.34 4.38 17 2 C16.236875 2.515625 15.47375 3.03125 14.6875 3.5625 C13.800625 4.036875 12.91375 4.51125 12 5 C11.01 4.67 10.02 4.34 9 4 C9 3.67 9 3.34 9 3 C6.69 2.67 4.38 2.34 2 2 C1.67 3.98 1.34 5.96 1 8 C3.64 8 6.28 8 9 8 C9 8.66 9 9.32 9 10 C6.03 10 3.06 10 0 10 C0 6.7 0 3.4 0 0 Z " fill="#EFAB34" transform="translate(275,201)"/>
<path d="M0 0 C2.97 0 5.94 0 9 0 C9 2.97 9 5.94 9 9 C5.7 9.33 2.4 9.66 -1 10 C-0.67 6.7 -0.34 3.4 0 0 Z " fill="#C9712A" transform="translate(226,211)"/>
<path d="M0 0 C2.31 0 4.62 0 7 0 C5.125 3.875 5.125 3.875 4 5 C4.99 5.33 5.98 5.66 7 6 C6.34 6 5.68 6 5 6 C5 6.66 5 7.32 5 8 C8.63 8 12.26 8 16 8 C16 5.69 16 3.38 16 1 C14.02 1 12.04 1 10 1 C10 0.67 10 0.34 10 0 C12.64 0 15.28 0 18 0 C18 2.97 18 5.94 18 9 C11.73 9 5.46 9 -1 9 C-0.67 7.35 -0.34 5.7 0 4 C0 2.68 0 1.36 0 0 Z " fill="#764225" transform="translate(315,133)"/>
<path d="M0 0 C2.97 0.33 5.94 0.66 9 1 C9.33 3.97 9.66 6.94 10 10 C6.7 10 3.4 10 0 10 C0 6.7 0 3.4 0 0 Z " fill="#F9C561" transform="translate(118,328)"/>
<path d="M0 0 C2.97 0 5.94 0 9 0 C9 0.33 9 0.66 9 1 C6.69 1.33 4.38 1.66 2 2 C2 19.82 2 37.64 2 56 C4.64 56.66 7.28 57.32 10 58 C10 58.33 10 58.66 10 59 C6.7 59 3.4 59 0 59 C0 39.53 0 20.06 0 0 Z " fill="#D07416" transform="translate(206,250)"/>
<path d="M0 0 C2.97 0 5.94 0 9 0 C9 2.97 9 5.94 9 9 C6.03 9 3.06 9 0 9 C0 6.03 0 3.06 0 0 Z " fill="#080201" transform="translate(128,348)"/>
<path d="M0 0 C2.97 0 5.94 0 9 0 C9 2.97 9 5.94 9 9 C6.03 9 3.06 9 0 9 C0 6.03 0 3.06 0 0 Z " fill="#090101" transform="translate(275,211)"/>
<path d="M0 0 C2.97 0 5.94 0 9 0 C9 2.97 9 5.94 9 9 C6.03 9 3.06 9 0 9 C0 6.03 0 3.06 0 0 Z " fill="#090101" transform="translate(236,211)"/>
<path d="M0 0 C2.97 0 5.94 0 9 0 C9 2.97 9 5.94 9 9 C6.03 9 3.06 9 0 9 C0 6.03 0 3.06 0 0 Z " fill="#060102" transform="translate(118,211)"/>
<path d="M0 0 C2.97 0 5.94 0 9 0 C9 2.97 9 5.94 9 9 C6.03 9 3.06 9 0 9 C0 6.03 0 3.06 0 0 Z " fill="#090000" transform="translate(314,192)"/>
<path d="M0 0 C2.97 0 5.94 0 9 0 C9 2.97 9 5.94 9 9 C6.03 9 3.06 9 0 9 C0 6.03 0 3.06 0 0 Z " fill="#070101" transform="translate(275,192)"/>
<path d="M0 0 C2.97 0 5.94 0 9 0 C9 2.97 9 5.94 9 9 C6.03 9 3.06 9 0 9 C0 6.03 0 3.06 0 0 Z " fill="#070001" transform="translate(216,192)"/>
<path d="M0 0 C2.97 0 5.94 0 9 0 C9 2.97 9 5.94 9 9 C6.03 9 3.06 9 0 9 C0 6.03 0 3.06 0 0 Z " fill="#080001" transform="translate(177,192)"/>
<path d="M0 0 C2.97 0 5.94 0 9 0 C9 2.97 9 5.94 9 9 C6.03 9 3.06 9 0 9 C0 6.03 0 3.06 0 0 Z " fill="#B98840" transform="translate(275,133)"/>
<path d="M0 0 C2.97 0 5.94 0 9 0 C9 2.97 9 5.94 9 9 C6.03 9 3.06 9 0 9 C0 6.03 0 3.06 0 0 Z " fill="#050102" transform="translate(324,123)"/>
<path d="M0 0 C2.97 0 5.94 0 9 0 C9 9.57 9 19.14 9 29 C6.03 29 3.06 29 0 29 C4 27 4 27 7 27 C6.67 19.41 6.34 11.82 6 4 C5.34 4 4.68 4 4 4 C4 3.01 4 2.02 4 1 C2.68 0.67 1.36 0.34 0 0 Z " fill="#BF7238" transform="translate(226,348)"/>
<path d="M0 0 C0.66 0 1.32 0 2 0 C2.33 8.91 2.66 17.82 3 27 C8.28 27.33 13.56 27.66 19 28 C19 28.33 19 28.66 19 29 C12.73 29 6.46 29 0 29 C0 19.43 0 9.86 0 0 Z " fill="#E6AF42" transform="translate(245,348)"/>
<path d="M0 0 C0.33 0 0.66 0 1 0 C1 3.63 1 7.26 1 11 C-1.97 11 -4.94 11 -8 11 C-8 17.27 -8 23.54 -8 30 C-8.33 30 -8.66 30 -9 30 C-9 26.7 -9 23.4 -9 20 C-11.97 20 -14.94 20 -18 20 C-18 19.67 -18 19.34 -18 19 C-15.36 19 -12.72 19 -10 19 C-10.01160156 18.36191406 -10.02320313 17.72382813 -10.03515625 17.06640625 C-10.04417969 16.24011719 -10.05320313 15.41382813 -10.0625 14.5625 C-10.07410156 13.73878906 -10.08570313 12.91507813 -10.09765625 12.06640625 C-10 10 -10 10 -9 9 C-5.99668982 8.85806663 -3.00782866 8.95763622 0 9 C0 6.03 0 3.06 0 0 Z " fill="#BCB4AB" transform="translate(185,181)"/>
<path d="M0 0 C2.64 0 5.28 0 8 0 C8 9.57 8 19.14 8 29 C7.67 29 7.34 29 7 29 C6.67 21.41 6.34 13.82 6 6 C3.03 5.505 3.03 5.505 0 5 C0 3.35 0 1.7 0 0 Z " fill="#D27719" transform="translate(149,309)"/>
<path d="M0 0 C2.97 0 5.94 0 9 0 C9 0.33 9 0.66 9 1 C6.69 1 4.38 1 2 1 C2 2.98 2 4.96 2 7 C10.58 7 19.16 7 28 7 C28 7.66 28 8.32 28 9 C18.76 9 9.52 9 0 9 C0 6.03 0 3.06 0 0 Z " fill="#EFB136" transform="translate(157,358)"/>
<path d="M0 0 C2.97 0 5.94 0 9 0 C9 6.27 9 12.54 9 19 C6.03 19 3.06 19 0 19 C0.50298788 14.59885603 2.08772731 12.28804981 5 9 C4.125 15.75 4.125 15.75 3 18 C4.32 17.67 5.64 17.34 7 17 C7.33 11.72 7.66 6.44 8 1 C5.36 1 2.72 1 0 1 C0 0.67 0 0.34 0 0 Z " fill="#F4AF32" transform="translate(373,211)"/>
<path d="M0 0 C1.134375 0.020625 2.26875 0.04125 3.4375 0.0625 C3.5625 5.8125 3.5625 5.8125 2.4375 8.0625 C0.1275 8.0625 -2.1825 8.0625 -4.5625 8.0625 C-4.60491723 5.72955225 -4.60342937 3.39547433 -4.5625 1.0625 C-3.5625 0.0625 -3.5625 0.0625 0 0 Z " fill="#060001" transform="translate(338.5625,211.9375)"/>
<path d="M0 0 C0.33 0 0.66 0 1 0 C1 9.24 1 18.48 1 28 C3.97 28 6.94 28 10 28 C10 30.97 10 33.94 10 37 C9.34 37 8.68 37 8 37 C8 34.69 8 32.38 8 30 C6.2984375 30.0309375 6.2984375 30.0309375 4.5625 30.0625 C1 30 1 30 0 29 C-0.08775605 26.85441173 -0.10695219 24.70595579 -0.09765625 22.55859375 C-0.09443359 21.25341797 -0.09121094 19.94824219 -0.08789062 18.60351562 C-0.07953401 17.2148431 -0.07106905 15.82617123 -0.0625 14.4375 C-0.05748666 13.04492344 -0.05292347 11.65234519 -0.04882812 10.25976562 C-0.03699434 6.8398013 -0.0205088 3.41992156 0 0 Z " fill="#AD894A" transform="translate(254,173)"/>
<path d="M0 0 C3.3 0 6.6 0 10 0 C10 6.6 10 13.2 10 20 C6.7 20 3.4 20 0 20 C0 13.4 0 6.8 0 0 Z M1 1 C0.94617894 3.62527189 0.90641687 6.24944713 0.875 8.875 C0.85824219 9.62136719 0.84148437 10.36773437 0.82421875 11.13671875 C0.8066041 13.09194461 0.89679811 15.04742021 1 17 C1.66 17.66 2.32 18.32 3 19 C4.98 19 6.96 19 9 19 C9 13.06 9 7.12 9 1 C6.36 1 3.72 1 1 1 Z " fill="#2D0B00" transform="translate(353,240)"/>
<path d="M0 0 C3.3 0 6.6 0 10 0 C10 6.6 10 13.2 10 20 C6.7 20 3.4 20 0 20 C0 13.4 0 6.8 0 0 Z M1 1 C1 6.94 1 12.88 1 19 C2.98 19 4.96 19 7 19 C9.41122368 17.03464283 9.41122368 17.03464283 9.1953125 13.3046875 C9.182009 11.82799892 9.15814835 10.35137642 9.125 8.875 C9.11146484 7.74384766 9.11146484 7.74384766 9.09765625 6.58984375 C9.0740687 4.72642746 9.03819719 2.86317407 9 1 C6.36 1 3.72 1 1 1 Z " fill="#311300" transform="translate(137,240)"/>
<path d="M0 0 C0 2.97 0 5.94 0 9 C3.3 9 6.6 9 10 9 C10 12.3 10 15.6 10 19 C9.34 18.67 8.68 18.34 8 18 C8 15.69 8 13.38 8 11 C4.7 11 1.4 11 -2 11 C-2 8.36 -2 5.72 -2 3 C-2.66 3 -3.32 3 -4 3 C-4 2.34 -4 1.68 -4 1 C-1 0 -1 0 0 0 Z " fill="#F49F26" transform="translate(314,211)"/>
<path d="M0 0 C0.66 0 1.32 0 2 0 C2 3.96 2 7.92 2 12 C-1.3 12 -4.6 12 -8 12 C-8 11.34 -8 10.68 -8 10 C-5.09451118 7.95830515 -3.59857954 7 0 7 C0 4.69 0 2.38 0 0 Z " fill="#C77031" transform="translate(341,336)"/>
<path d="M0 0 C2.97 0 5.94 0 9 0 C8.01 0.495 8.01 0.495 7 1 C7 1.66 7 2.32 7 3 C5.68 3.33 4.36 3.66 3 4 C2.95101562 4.99902344 2.90203125 5.99804688 2.8515625 7.02734375 C2.77679688 8.31769531 2.70203125 9.60804688 2.625 10.9375 C2.52058594 12.86916016 2.52058594 12.86916016 2.4140625 14.83984375 C2.27742187 15.88269531 2.14078125 16.92554688 2 18 C1.34 18.33 0.68 18.66 0 19 C0 12.73 0 6.46 0 0 Z " fill="#C47235" transform="translate(157,221)"/>
<path d="M0 0 C2.64 0 5.28 0 8 0 C8 0.33 8 0.66 8 1 C5.69 1 3.38 1 1 1 C1.05329468 2.17187866 1.05329468 2.17187866 1.10766602 3.36743164 C1.26598824 6.93219275 1.41433122 10.49730302 1.5625 14.0625 C1.61857422 15.29162109 1.67464844 16.52074219 1.73242188 17.78710938 C1.9701651 23.6672919 2.16023157 29.21603075 1 35 C1.66 35 2.32 35 3 35 C3 35.99 3 36.98 3 38 C2.01 38 1.02 38 0 38 C0 25.46 0 12.92 0 0 Z " fill="#CF6F16" transform="translate(275,309)"/>
<path d="M0 0 C0.66 0 1.32 0 2 0 C2 3.3 2 6.6 2 10 C-4.27 10 -10.54 10 -17 10 C-17 9.34 -17 8.68 -17 8 C-11.39 8 -5.78 8 0 8 C0 6.35 0 4.7 0 3 C0 2.01 0 1.02 0 0 Z " fill="#1E0A00" transform="translate(145,201)"/>
<path d="M0 0 C1.98 0 3.96 0 6 0 C6 1.98 6 3.96 6 6 C6.66 6.33 7.32 6.66 8 7 C2.06 7 -3.88 7 -10 7 C-6.94932165 3.94932165 -3.60373178 4.56066225 0.56640625 4.34375 C1.36949219 4.2303125 2.17257812 4.116875 3 4 C3.33 3.34 3.66 2.68 4 2 C2.35 2 0.7 2 -1 2 C-0.67 1.34 -0.34 0.68 0 0 Z " fill="#C48B27" transform="translate(256,204)"/>
<path d="M0 0 C2.97 0 5.94 0 9 0 C9 0.33 9 0.66 9 1 C6.36 1 3.72 1 1 1 C1.33 2.98 1.66 4.96 2 7 C7.28 7.33 12.56 7.66 18 8 C18 5.36 18 2.72 18 0 C18.33 0 18.66 0 19 0 C19 2.97 19 5.94 19 9 C12.73 9 6.46 9 0 9 C0 6.03 0 3.06 0 0 Z " fill="#F0AE33" transform="translate(333,358)"/>
<path d="M0 0 C0.66 0 1.32 0 2 0 C2 2.64 2 5.28 2 8 C3.98 8 5.96 8 8 8 C7.67 7.01 7.34 6.02 7 5 C7.99 4.01 8.98 3.02 10 2 C10 4.64 10 7.28 10 10 C6.7 10 3.4 10 0 10 C0 6.7 0 3.4 0 0 Z " fill="#290F02" transform="translate(225,201)"/>
<path d="M0 0 C1.65 0 3.3 0 5 0 C5 0.66 5 1.32 5 2 C4.01 2 3.02 2 2 2 C2.33 4.31 2.66 6.62 3 9 C4.65 9 6.3 9 8 9 C8 6.03 8 3.06 8 0 C8.33 0 8.66 0 9 0 C9 3.3 9 6.6 9 10 C6.03 10 3.06 10 0 10 C0 6.7 0 3.4 0 0 Z " fill="#F5AE30" transform="translate(373,338)"/>
<path d="M0 0 C3.3 0 6.6 0 10 0 C10 0.33 10 0.66 10 1 C7.03 1 4.06 1 1 1 C1.08378906 2.24136719 1.16757813 3.48273438 1.25390625 4.76171875 C1.35711175 6.40362444 1.45995742 8.04555278 1.5625 9.6875 C1.61857422 10.50412109 1.67464844 11.32074219 1.73242188 12.16210938 C1.98341571 16.29514123 2.11127743 19.95824282 1 24 C1.66 24 2.32 24 3 24 C2.67 25.32 2.34 26.64 2 28 C1.34 28 0.68 28 0 28 C0 18.76 0 9.52 0 0 Z " fill="#FBAC2A" transform="translate(157,240)"/>
<path d="M0 0 C1.98 0 3.96 0 6 0 C6.125 2.875 6.125 2.875 6 6 C5.34 6.66 4.68 7.32 4 8 C1.875 7.625 1.875 7.625 0 7 C0 4.69 0 2.38 0 0 Z " fill="#030102" transform="translate(325,202)"/>
<path d="M0 0 C0 0.99 0 1.98 0 3 C-8.91 3 -17.82 3 -27 3 C-26.67 2.34 -26.34 1.68 -26 1 C-24.08574219 1.01740234 -24.08574219 1.01740234 -22.1328125 1.03515625 C-20.46354313 1.04453417 -18.79427217 1.05363437 -17.125 1.0625 C-16.28324219 1.07087891 -15.44148437 1.07925781 -14.57421875 1.08789062 C-13.76855469 1.09111328 -12.96289062 1.09433594 -12.1328125 1.09765625 C-11.38918457 1.10289307 -10.64555664 1.10812988 -9.87939453 1.11352539 C-6.46594043 0.90733467 -3.64984567 -0.07934447 0 0 Z " fill="#110000" transform="translate(215,188)"/>
<path d="M0 0 C2.97 0 5.94 0 9 0 C8.67 1.65 8.34 3.3 8 5 C5.69 5 3.38 5 1 5 C0.67 3.35 0.34 1.7 0 0 Z " fill="#C76F2F" transform="translate(216,201)"/>
<path d="M0 0 C2.97 0 5.94 0 9 0 C8.67 6.6 8.34 13.2 8 20 C7.67 20 7.34 20 7 20 C6.67 14.72 6.34 9.44 6 4 C5.34 4 4.68 4 4 4 C4 3.01 4 2.02 4 1 C2.68 0.67 1.36 0.34 0 0 Z " fill="#C36B2D" transform="translate(226,348)"/>
<path d="M0 0 C0 2.31 0 4.62 0 7 C-2.31 7 -4.62 7 -7 7 C-6.8125 5.1875 -6.8125 5.1875 -6 3 C-1.71428571 0 -1.71428571 0 0 0 Z " fill="#BF8831" transform="translate(283,134)"/>
<path d="M0 0 C6.27 0 12.54 0 19 0 C19 2.97 19 5.94 19 9 C17 5 17 5 16 2 C10.72 1.67 5.44 1.34 0 1 C0 0.67 0 0.34 0 0 Z " fill="#1E0900" transform="translate(138,358)"/>
<path d="M0 0 C2.97 0.495 2.97 0.495 6 1 C6 2.32 6 3.64 6 5 C3.03 5 0.06 5 -3 5 C-2.34 4.67 -1.68 4.34 -1 4 C-0.34786708 1.97536745 -0.34786708 1.97536745 0 0 Z " fill="#CF7519" transform="translate(180,206)"/>
<path d="M0 0 C0.33 0 0.66 0 1 0 C1 6.27 1 12.54 1 19 C-2.3 19 -5.6 19 -9 19 C-9 18.67 -9 18.34 -9 18 C-7.865625 17.855625 -6.73125 17.71125 -5.5625 17.5625 C-2.19222799 17.38828522 -2.19222799 17.38828522 -1 16 C-0.76321284 13.30764224 -0.57801975 10.63501844 -0.4375 7.9375 C-0.39431641 7.17888672 -0.35113281 6.42027344 -0.30664062 5.63867188 C-0.20026367 3.75934562 -0.09960066 1.87969756 0 0 Z " fill="#170500" transform="translate(254,143)"/>
<path d="M0 0 C1.48831242 0.00667405 2.97660807 0.01863442 4.46484375 0.03515625 C5.22345703 0.03966797 5.98207031 0.04417969 6.76367188 0.04882812 C8.64326246 0.06064945 10.52281274 0.07858547 12.40234375 0.09765625 C12.40234375 0.42765625 12.40234375 0.75765625 12.40234375 1.09765625 C7.45234375 1.09765625 2.50234375 1.09765625 -2.59765625 1.09765625 C-2.26765625 2.08765625 -1.93765625 3.07765625 -1.59765625 4.09765625 C-3.03515625 6.28515625 -3.03515625 6.28515625 -4.59765625 8.09765625 C-4.64007348 5.7647085 -4.63858562 3.43063058 -4.59765625 1.09765625 C-3.59765625 0.09765625 -3.59765625 0.09765625 0 0 Z " fill="#F2B12E" transform="translate(152.59765625,201.90234375)"/>
<path d="M0 0 C0.66 0 1.32 0 2 0 C2 2.97 2 5.94 2 9 C-1.3 9 -4.6 9 -8 9 C-7.67 8.34 -7.34 7.68 -7 7 C-5.02 7 -3.04 7 -1 7 C-0.67 4.69 -0.34 2.38 0 0 Z " fill="#180702" transform="translate(263,133)"/>
<path d="M0 0 C0.33 0 0.66 0 1 0 C1 1.65 1 3.3 1 5 C1.99 5 2.98 5 4 5 C4 5.99 4 6.98 4 8 C5.98 8 7.96 8 10 8 C10 8.33 10 8.66 10 9 C6.7 9 3.4 9 0 9 C0 6.03 0 3.06 0 0 Z " fill="#E5A72F" transform="translate(284,211)"/>
<path d="M0 0 C2.97 0 5.94 0 9 0 C9 3.3 9 6.6 9 10 C8.34 10 7.68 10 7 10 C6.20046862 6.71303767 5.90341064 5.28976808 7 2 C4.69 1.67 2.38 1.34 0 1 C0 0.67 0 0.34 0 0 Z " fill="#160A00" transform="translate(118,338)"/>
<path d="M0 0 C0.33 0 0.66 0 1 0 C1 2.97 1 5.94 1 9 C-1.97 9 -4.94 9 -8 9 C-5.33333333 7.66666667 -2.66666667 6.33333333 0 5 C0 3.35 0 1.7 0 0 Z " fill="#D97A1B" transform="translate(175,212)"/>
<path d="M0 0 C0.33 0 0.66 0 1 0 C1 1.98 1 3.96 1 6 C3.64 6.66 6.28 7.32 9 8 C9 8.33 9 8.66 9 9 C6.03 9 3.06 9 0 9 C0 6.03 0 3.06 0 0 Z " fill="#210400" transform="translate(167,202)"/>
<path d="M0 0 C-1.75 5.75 -1.75 5.75 -4 8 C-4.33 5.69 -4.66 3.38 -5 1 C-2 0 -2 0 0 0 Z " fill="#F8B116" transform="translate(380,339)"/>
<path d="M0 0 C0.33 0 0.66 0 1 0 C1 2.97 1 5.94 1 9 C-0.32 8.67 -1.64 8.34 -3 8 C-1.125 1.125 -1.125 1.125 0 0 Z " fill="#B16126" transform="translate(215,192)"/>
<path d="M0 0 C0.99 0 1.98 0 3 0 C3 2.97 3 5.94 3 9 C2.01 8.67 1.02 8.34 0 8 C0 5.36 0 2.72 0 0 Z " fill="#210F06" transform="translate(272,123)"/>
</svg>
